G04 Layer_Color=16711935*
%FSLAX25Y25*%
%MOIN*%
G70*
G01*
G75*
%ADD60C,0.07402*%
%ADD61R,0.07402X0.07402*%
%ADD62C,0.08189*%
%ADD63R,0.07402X0.07402*%
%ADD64C,0.23937*%
%ADD65O,0.08189X0.09764*%
%ADD66C,0.05433*%
%ADD67C,0.06024*%
G04:AMPARAMS|DCode=68|XSize=81.89mil|YSize=77.95mil|CornerRadius=20.28mil|HoleSize=0mil|Usage=FLASHONLY|Rotation=0.000|XOffset=0mil|YOffset=0mil|HoleType=Round|Shape=RoundedRectangle|*
%AMROUNDEDRECTD68*
21,1,0.08189,0.03740,0,0,0.0*
21,1,0.04134,0.07795,0,0,0.0*
1,1,0.04055,0.02067,-0.01870*
1,1,0.04055,-0.02067,-0.01870*
1,1,0.04055,-0.02067,0.01870*
1,1,0.04055,0.02067,0.01870*
%
%ADD68ROUNDEDRECTD68*%
%ADD69C,0.09764*%
%ADD70R,0.09764X0.09764*%
%ADD71C,0.10157*%
%ADD72C,0.20118*%
%ADD73C,0.06102*%
%ADD74R,0.09764X0.09764*%
%ADD75C,0.05315*%
D60*
X313307Y38386D02*
D03*
X303307D02*
D03*
X293307D02*
D03*
X283307D02*
D03*
X237205Y8858D02*
D03*
X247205D02*
D03*
X257205D02*
D03*
X237205Y24606D02*
D03*
X247205D02*
D03*
X257205D02*
D03*
X261811Y202913D02*
D03*
Y212913D02*
D03*
X91969Y42441D02*
D03*
Y52441D02*
D03*
X101969Y42441D02*
D03*
X111969D02*
D03*
X101969Y52441D02*
D03*
X324803Y75787D02*
D03*
Y128110D02*
D03*
Y118110D02*
D03*
Y108110D02*
D03*
X294449Y8858D02*
D03*
X284449D02*
D03*
D61*
X273307Y38386D02*
D03*
X227205Y8858D02*
D03*
Y24606D02*
D03*
X111969Y52441D02*
D03*
X274449Y8858D02*
D03*
D62*
X159354Y20516D02*
D03*
X178567D02*
D03*
X57323Y125000D02*
D03*
X76535D02*
D03*
D63*
X261811Y192913D02*
D03*
X324803Y85787D02*
D03*
Y138110D02*
D03*
D64*
X15748Y318898D02*
D03*
Y15748D02*
D03*
X318898D02*
D03*
Y318898D02*
D03*
D65*
X163228Y217520D02*
D03*
X173228D02*
D03*
X183228D02*
D03*
X40512Y267717D02*
D03*
X30512D02*
D03*
X20512D02*
D03*
D66*
X63779Y267815D02*
D03*
X71653D02*
D03*
D67*
X119291Y314961D02*
D03*
X99606D02*
D03*
D68*
X123228Y325590D02*
D03*
X95669D02*
D03*
D69*
X302165Y281496D02*
D03*
Y267717D02*
D03*
Y253937D02*
D03*
X49868Y304644D02*
D03*
X303150Y212598D02*
D03*
Y198819D02*
D03*
Y185039D02*
D03*
D70*
X302165Y240158D02*
D03*
X303150Y171260D02*
D03*
D71*
X282756Y301732D02*
D03*
X218740D02*
D03*
X142953D02*
D03*
X206968D02*
D03*
D72*
X225748Y315236D02*
D03*
X275748D02*
D03*
X199961D02*
D03*
X149961D02*
D03*
D73*
X264764Y298228D02*
D03*
X260748Y305236D02*
D03*
X256732Y298228D02*
D03*
X252716Y305236D02*
D03*
X248701Y298228D02*
D03*
X244685Y305236D02*
D03*
X240669Y298228D02*
D03*
X236653Y305236D02*
D03*
X160866D02*
D03*
X164882Y298228D02*
D03*
X168898Y305236D02*
D03*
X172913Y298228D02*
D03*
X176929Y305236D02*
D03*
X180945Y298228D02*
D03*
X184961Y305236D02*
D03*
X188976Y298228D02*
D03*
D74*
X63648Y304644D02*
D03*
D75*
X177165Y103347D02*
D03*
X181102Y97441D02*
D03*
X270669Y260827D02*
D03*
X146653Y262795D02*
D03*
X99410Y147638D02*
D03*
X159449Y162402D02*
D03*
X183071D02*
D03*
X125000Y53150D02*
D03*
X85630Y90551D02*
D03*
X124016Y198819D02*
D03*
X118110Y183071D02*
D03*
X124016Y187992D02*
D03*
X118110Y193898D02*
D03*
X230315Y296260D02*
D03*
X75787Y52165D02*
D03*
X141732Y43307D02*
D03*
X199803Y126969D02*
D03*
X111221Y246063D02*
D03*
X98425D02*
D03*
X131890Y243110D02*
D03*
X188779Y266929D02*
D03*
X107169Y61709D02*
D03*
X139665Y219587D02*
D03*
X62402Y226083D02*
D03*
X126673Y105610D02*
D03*
X157441Y79764D02*
D03*
M02*
