G04 Layer_Color=65535*
%FSLAX25Y25*%
%MOIN*%
G70*
G01*
G75*
%ADD20C,0.01000*%
%ADD21C,0.01968*%
%ADD42C,0.00984*%
%ADD43C,0.02362*%
%ADD44C,0.00787*%
%ADD45C,0.00394*%
D20*
X145732Y11854D02*
X191008D01*
X145732D02*
Y30358D01*
X191008D01*
Y11854D02*
Y30358D01*
X43701Y116339D02*
X88976D01*
X43701D02*
Y134843D01*
X88976D01*
Y116339D02*
Y134843D01*
D21*
X72244Y212402D02*
G03*
X72244Y212402I-787J0D01*
G01*
X214035Y306744D02*
G03*
X214035Y306744I-728J0D01*
G01*
X138248D02*
G03*
X138248Y306744I-728J0D01*
G01*
D42*
X39173Y182677D02*
G03*
X39173Y182677I-492J0D01*
G01*
X140453Y110079D02*
G03*
X140453Y110079I-492J0D01*
G01*
X151870Y251634D02*
G03*
X151870Y251634I-492J0D01*
G01*
D43*
X150197Y104370D02*
G03*
X150197Y104370I-1181J0D01*
G01*
X160728Y246791D02*
G03*
X160728Y246791I-1181J0D01*
G01*
D44*
X78347Y267815D02*
G03*
X78347Y267815I-10630J0D01*
G01*
X88317Y210492D02*
G03*
X90817Y210492I1250J0D01*
G01*
X12402Y176378D02*
X38780D01*
X12402Y166142D02*
X38780D01*
Y176378D01*
X12402Y166142D02*
Y176378D01*
X44685Y241535D02*
X45079D01*
X44685Y244685D02*
X45079D01*
X51382Y241110D02*
Y245110D01*
X267402Y44291D02*
X319173D01*
X267402Y35630D02*
Y44291D01*
Y35630D02*
X270551Y32480D01*
X319173D01*
Y44291D01*
X263347Y2953D02*
Y14764D01*
X224449Y2953D02*
X263347D01*
X221299Y6102D02*
X224449Y2953D01*
X221299Y6102D02*
Y14764D01*
X263347D01*
Y18701D02*
Y30512D01*
X224449Y18701D02*
X263347D01*
X221299Y21850D02*
X224449Y18701D01*
X221299Y21850D02*
Y30512D01*
X263347D01*
X255906Y218937D02*
X267717D01*
Y190157D02*
Y218937D01*
X264567Y187008D02*
X267717Y190157D01*
X255906Y187008D02*
X264567D01*
X255906D02*
Y218937D01*
X117095Y236618D02*
X121095D01*
X117520Y229921D02*
Y230315D01*
X120669Y229921D02*
Y230315D01*
X117095Y245272D02*
X121095D01*
X120669Y251575D02*
Y251969D01*
X117520Y251575D02*
Y251969D01*
X123618Y164339D02*
Y168339D01*
X129921Y164764D02*
X130315D01*
X129921Y167913D02*
X130315D01*
X123224Y171228D02*
Y175228D01*
X129528Y171653D02*
X129921D01*
X129528Y174803D02*
X129921D01*
X85945Y36535D02*
Y58346D01*
X114724D01*
X117874Y55197D01*
Y36535D02*
Y55197D01*
X85945Y36535D02*
X117874D01*
X145079Y59095D02*
Y108307D01*
X194291Y59095D02*
Y108307D01*
X145079D02*
X194291D01*
X145079Y59095D02*
X194291D01*
X51780Y267815D02*
X55779D01*
X53780Y265815D02*
Y269815D01*
X155610Y230650D02*
X168996D01*
X155610Y250728D02*
X168996D01*
Y230650D02*
Y250728D01*
X155610Y230650D02*
Y250728D01*
X78287Y165492D02*
Y210492D01*
Y165492D02*
X100847D01*
Y210492D01*
X90817D02*
X100847D01*
X78287D02*
X88317D01*
X126211Y311516D02*
Y321063D01*
X122176Y311516D02*
X126211D01*
X92747D02*
X96585D01*
X92747D02*
Y321063D01*
X295079Y292126D02*
X309252D01*
X295079Y232087D02*
Y292126D01*
Y232087D02*
X297835Y229331D01*
X309252D01*
X216752Y336024D02*
X284744D01*
X216752Y274016D02*
X284744D01*
X140965D02*
X208957D01*
X140965Y336024D02*
X208957D01*
X318898Y69882D02*
X330709D01*
X318898D02*
Y88543D01*
X322047Y91693D01*
X330709D01*
Y69882D02*
Y91693D01*
X318898Y101969D02*
X330709D01*
X318898D02*
Y140866D01*
X322047Y144016D01*
X330709D01*
Y101969D02*
Y144016D01*
X74475Y300313D02*
Y311731D01*
X71719Y297557D02*
X74475Y300313D01*
X39042Y297557D02*
X71719D01*
X39042D02*
Y311731D01*
X296063Y223228D02*
X310236D01*
X296063Y163189D02*
Y223228D01*
Y163189D02*
X298819Y160433D01*
X310236D01*
X268543Y14764D02*
X300472D01*
X268543Y6102D02*
Y14764D01*
Y6102D02*
X271693Y2953D01*
X300472D01*
Y14764D01*
X4002Y30020D02*
X7937D01*
Y31988D01*
X7281Y32643D01*
X4658D01*
X4002Y31988D01*
Y30020D01*
X7937Y35923D02*
Y34611D01*
X7281Y33955D01*
X5970D01*
X5314Y34611D01*
Y35923D01*
X5970Y36579D01*
X6626D01*
Y33955D01*
X7937Y37891D02*
Y39859D01*
X7281Y40515D01*
X6626Y39859D01*
Y38547D01*
X5970Y37891D01*
X5314Y38547D01*
Y40515D01*
X7937Y41827D02*
Y43139D01*
Y42483D01*
X5314D01*
Y41827D01*
X9249Y46419D02*
Y47074D01*
X8593Y47730D01*
X5314D01*
Y45763D01*
X5970Y45107D01*
X7281D01*
X7937Y45763D01*
Y47730D01*
Y49042D02*
X5314D01*
Y51010D01*
X5970Y51666D01*
X7937D01*
X5314Y52978D02*
Y53634D01*
X5970D01*
Y52978D01*
X5314D01*
X7281D02*
Y53634D01*
X7937D01*
Y52978D01*
X7281D01*
X4002Y62818D02*
Y61506D01*
Y62161D01*
X7281D01*
X7937Y61506D01*
Y60850D01*
X7281Y60194D01*
X7937Y64785D02*
Y66097D01*
X7281Y66753D01*
X5970D01*
X5314Y66097D01*
Y64785D01*
X5970Y64129D01*
X7281D01*
X7937Y64785D01*
X4002Y68065D02*
X7937D01*
X5970D01*
X5314Y68721D01*
Y70033D01*
X5970Y70689D01*
X7937D01*
X5314Y72657D02*
Y73969D01*
X5970Y74625D01*
X7937D01*
Y72657D01*
X7281Y72001D01*
X6626Y72657D01*
Y74625D01*
X7937Y75937D02*
X5314D01*
Y77904D01*
X5970Y78561D01*
X7937D01*
X4002Y83808D02*
X6626D01*
X7937Y85120D01*
X6626Y86432D01*
X4002D01*
X5314Y88400D02*
Y89712D01*
X5970Y90368D01*
X7937D01*
Y88400D01*
X7281Y87744D01*
X6626Y88400D01*
Y90368D01*
X5314Y92336D02*
Y93647D01*
X5970Y94303D01*
X7937D01*
Y92336D01*
X7281Y91680D01*
X6626Y92336D01*
Y94303D01*
X5314Y95615D02*
X7937D01*
X6626D01*
X5970Y96271D01*
X5314Y96927D01*
Y97583D01*
X7937Y99551D02*
Y100863D01*
Y100207D01*
X4002D01*
Y99551D01*
X7937Y102831D02*
Y104143D01*
Y103487D01*
X5314D01*
Y102831D01*
X4002Y108735D02*
X7937D01*
Y106767D01*
X7281Y106111D01*
X5970D01*
X5314Y106767D01*
Y108735D01*
X11926Y30020D02*
Y32643D01*
Y31332D01*
X15862D01*
X11926Y33955D02*
Y36579D01*
Y35267D01*
X15862D01*
X11926Y37891D02*
X15862D01*
X14550D01*
X11926Y40515D01*
X13894Y38547D01*
X15862Y40515D01*
X12582Y41827D02*
X11926Y42483D01*
Y43795D01*
X12582Y44451D01*
X13238D01*
X13894Y43795D01*
X14550Y44451D01*
X15206D01*
X15862Y43795D01*
Y42483D01*
X15206Y41827D01*
X14550D01*
X13894Y42483D01*
X13238Y41827D01*
X12582D01*
X13894Y42483D02*
Y43795D01*
Y49698D02*
Y52322D01*
X11926Y57570D02*
X15862D01*
X14550D01*
X11926Y60194D01*
X13894Y58226D01*
X15862Y60194D01*
Y62162D02*
Y63473D01*
X15206Y64129D01*
X13894D01*
X13238Y63473D01*
Y62162D01*
X13894Y61506D01*
X15206D01*
X15862Y62162D01*
Y65441D02*
X13238D01*
Y67409D01*
X13894Y68065D01*
X15862D01*
Y69377D02*
Y71345D01*
X15206Y72001D01*
X14550Y71345D01*
Y70033D01*
X13894Y69377D01*
X13238Y70033D01*
Y72001D01*
X12582Y73969D02*
X13238D01*
Y73313D01*
Y74625D01*
Y73969D01*
X15206D01*
X15862Y74625D01*
X13238Y76593D02*
X15862D01*
X14550D01*
X13894Y77249D01*
X13238Y77904D01*
Y78561D01*
Y80528D02*
X15206D01*
X15862Y81184D01*
Y83152D01*
X13238D01*
X15862Y84464D02*
Y86432D01*
X15206Y87088D01*
X14550Y86432D01*
Y85120D01*
X13894Y84464D01*
X13238Y85120D01*
Y87088D01*
X17174Y88400D02*
Y89056D01*
X16518Y89712D01*
X13238D01*
X15862Y92992D02*
Y94303D01*
X15206Y94959D01*
X13894D01*
X13238Y94303D01*
Y92992D01*
X13894Y92336D01*
X15206D01*
X15862Y92992D01*
Y96271D02*
X13238D01*
Y98239D01*
X13894Y98895D01*
X15862D01*
X13238Y104799D02*
Y106111D01*
X13894Y106767D01*
X15862D01*
Y104799D01*
X15206Y104143D01*
X14550Y104799D01*
Y106767D01*
X13238Y108079D02*
X15862Y109390D01*
X13238Y110702D01*
X23787Y30020D02*
Y31332D01*
Y30676D01*
X21163D01*
Y30020D01*
X23787Y33299D02*
X21163D01*
Y35267D01*
X21819Y35923D01*
X23787D01*
Y37235D02*
X21163D01*
Y39203D01*
X21819Y39859D01*
X23787D01*
Y43139D02*
Y41827D01*
X23131Y41171D01*
X21819D01*
X21163Y41827D01*
Y43139D01*
X21819Y43795D01*
X22475D01*
Y41171D01*
X19851Y45107D02*
X23787D01*
Y47074D01*
X23131Y47730D01*
X22475D01*
X21819D01*
X21163Y47074D01*
Y45107D01*
Y49042D02*
X23131D01*
X23787Y49698D01*
Y51666D01*
X24442D01*
X25098Y51010D01*
Y50354D01*
X23787Y51666D02*
X21163D01*
X25098Y54290D02*
Y54946D01*
X24442Y55602D01*
X21163D01*
Y53634D01*
X21819Y52978D01*
X23131D01*
X23787Y53634D01*
Y55602D01*
X19851Y59538D02*
X23787D01*
Y57570D01*
X23131Y56914D01*
X21819D01*
X21163Y57570D01*
Y59538D01*
X23787Y62818D02*
Y61506D01*
X23131Y60850D01*
X21819D01*
X21163Y61506D01*
Y62818D01*
X21819Y63473D01*
X22475D01*
Y60850D01*
X23787Y68721D02*
Y70689D01*
X23131Y71345D01*
X22475Y70689D01*
Y69377D01*
X21819Y68721D01*
X21163Y69377D01*
Y71345D01*
Y72657D02*
X23131D01*
X23787Y73313D01*
Y75281D01*
X24442D01*
X25098Y74625D01*
Y73969D01*
X23787Y75281D02*
X21163D01*
X23787Y76593D02*
Y78561D01*
X23131Y79216D01*
X22475Y78561D01*
Y77249D01*
X21819Y76593D01*
X21163Y77249D01*
Y79216D01*
X20507Y81184D02*
X21163D01*
Y80528D01*
Y81840D01*
Y81184D01*
X23131D01*
X23787Y81840D01*
Y85776D02*
Y84464D01*
X23131Y83808D01*
X21819D01*
X21163Y84464D01*
Y85776D01*
X21819Y86432D01*
X22475D01*
Y83808D01*
X23787Y87744D02*
X21163D01*
Y88400D01*
X21819Y89056D01*
X23787D01*
X21819D01*
X21163Y89712D01*
X21819Y90368D01*
X23787D01*
Y93647D02*
Y92336D01*
X23131Y91680D01*
X21819D01*
X21163Y92336D01*
Y93647D01*
X21819Y94303D01*
X22475D01*
Y91680D01*
X21163Y95615D02*
X23787D01*
X22475D01*
X21819Y96271D01*
X21163Y96927D01*
Y97583D01*
X5478Y206528D02*
X4822Y207184D01*
X3510D01*
X2854Y206528D01*
Y203904D01*
X3510Y203248D01*
X4822D01*
X5478Y203904D01*
X6790Y203248D02*
X8102D01*
X7446D01*
Y207184D01*
X6790Y206528D01*
X10070Y207184D02*
X12694D01*
Y206528D01*
X10070Y203904D01*
Y203248D01*
X6791Y197341D02*
Y194062D01*
X7447Y193405D01*
X8759D01*
X9415Y194062D01*
Y197341D01*
X13351D02*
X10727D01*
Y195373D01*
X12039Y196029D01*
X12695D01*
X13351Y195373D01*
Y194062D01*
X12695Y193405D01*
X11383D01*
X10727Y194062D01*
X18799Y229528D02*
Y233463D01*
X20767D01*
X21423Y232807D01*
Y231495D01*
X20767Y230839D01*
X18799D01*
X20111D02*
X21423Y229528D01*
X22735D02*
X24047D01*
X23391D01*
Y233463D01*
X22735Y232807D01*
X26015D02*
X26671Y233463D01*
X27983D01*
X28638Y232807D01*
Y232151D01*
X27983Y231495D01*
X27327D01*
X27983D01*
X28638Y230839D01*
Y230184D01*
X27983Y229528D01*
X26671D01*
X26015Y230184D01*
X41831Y238188D02*
Y234252D01*
X43799D01*
X44455Y234908D01*
Y237532D01*
X43799Y238188D01*
X41831D01*
X48390D02*
X45766D01*
Y236220D01*
X47078Y236876D01*
X47734D01*
X48390Y236220D01*
Y234908D01*
X47734Y234252D01*
X46422D01*
X45766Y234908D01*
X165076Y265689D02*
Y269625D01*
X167044D01*
X167700Y268969D01*
Y267657D01*
X167044Y267001D01*
X165076D01*
X166388D02*
X167700Y265689D01*
X169012D02*
X170324D01*
X169668D01*
Y269625D01*
X169012Y268969D01*
X174916Y265689D02*
X172292D01*
X174916Y268313D01*
Y268969D01*
X174260Y269625D01*
X172948D01*
X172292Y268969D01*
X323982Y37007D02*
X322670D01*
X323326D01*
Y33727D01*
X322670Y33071D01*
X322014D01*
X321358Y33727D01*
X325294Y33071D02*
X326606D01*
X325950D01*
Y37007D01*
X325294Y36351D01*
X328574Y33071D02*
X329886D01*
X329230D01*
Y37007D01*
X328574Y36351D01*
X272014Y29723D02*
X270702D01*
X271358D01*
Y26443D01*
X270702Y25787D01*
X270046D01*
X269390Y26443D01*
X273325Y25787D02*
X274637D01*
X273981D01*
Y29723D01*
X273325Y29067D01*
X276605D02*
X277261Y29723D01*
X278573D01*
X279229Y29067D01*
Y26443D01*
X278573Y25787D01*
X277261D01*
X276605Y26443D01*
Y29067D01*
X209317Y204067D02*
X208661Y204723D01*
X207349D01*
X206693Y204067D01*
Y201443D01*
X207349Y200787D01*
X208661D01*
X209317Y201443D01*
X210629Y200787D02*
X211941D01*
X211285D01*
Y204723D01*
X210629Y204067D01*
X216532Y204723D02*
X215220Y204067D01*
X213908Y202755D01*
Y201443D01*
X214564Y200787D01*
X215876D01*
X216532Y201443D01*
Y202099D01*
X215876Y202755D01*
X213908D01*
X148293Y219160D02*
Y221784D01*
X147637Y222440D01*
X146325D01*
X145669Y221784D01*
Y219160D01*
X146325Y218504D01*
X147637D01*
X146981Y219816D02*
X148293Y218504D01*
X147637D02*
X148293Y219160D01*
X149605Y218504D02*
X150917D01*
X150261D01*
Y222440D01*
X149605Y221784D01*
X200476Y226289D02*
Y230225D01*
X202444D01*
X203100Y229569D01*
Y228257D01*
X202444Y227601D01*
X200476D01*
X201788D02*
X203100Y226289D01*
X204412Y229569D02*
X205068Y230225D01*
X206380D01*
X207036Y229569D01*
Y228913D01*
X206380Y228257D01*
X207036Y227601D01*
Y226945D01*
X206380Y226289D01*
X205068D01*
X204412Y226945D01*
Y227601D01*
X205068Y228257D01*
X204412Y228913D01*
Y229569D01*
X205068Y228257D02*
X206380D01*
X178150Y194882D02*
Y198818D01*
X180117D01*
X180773Y198162D01*
Y196850D01*
X180117Y196194D01*
X178150D01*
X179462D02*
X180773Y194882D01*
X182085Y195538D02*
X182741Y194882D01*
X184053D01*
X184709Y195538D01*
Y198162D01*
X184053Y198818D01*
X182741D01*
X182085Y198162D01*
Y197506D01*
X182741Y196850D01*
X184709D01*
X183071Y180118D02*
Y184054D01*
X185039D01*
X185695Y183398D01*
Y182086D01*
X185039Y181430D01*
X183071D01*
X184383D02*
X185695Y180118D01*
X187007D02*
X188319D01*
X187663D01*
Y184054D01*
X187007Y183398D01*
X190286D02*
X190942Y184054D01*
X192254D01*
X192910Y183398D01*
Y180774D01*
X192254Y180118D01*
X190942D01*
X190286Y180774D01*
Y183398D01*
X183071Y172244D02*
Y176180D01*
X185039D01*
X185695Y175524D01*
Y174212D01*
X185039Y173556D01*
X183071D01*
X184383D02*
X185695Y172244D01*
X187007D02*
X188319D01*
X187663D01*
Y176180D01*
X187007Y175524D01*
X190286Y172244D02*
X191598D01*
X190942D01*
Y176180D01*
X190286Y175524D01*
X292087Y328857D02*
Y324921D01*
X294055D01*
X294710Y325577D01*
Y326233D01*
X294055Y326889D01*
X292087D01*
X294055D01*
X294710Y327545D01*
Y328201D01*
X294055Y328857D01*
X292087D01*
X296022Y324921D02*
X297334D01*
X296678D01*
Y328857D01*
X296022Y328201D01*
X131561Y251311D02*
X130905Y251967D01*
X129593D01*
X128937Y251311D01*
Y248688D01*
X129593Y248031D01*
X130905D01*
X131561Y248688D01*
X132873Y248031D02*
X134185D01*
X133529D01*
Y251967D01*
X132873Y251311D01*
X138776Y251967D02*
X136153D01*
Y249999D01*
X137464Y250655D01*
X138120D01*
X138776Y249999D01*
Y248688D01*
X138120Y248031D01*
X136809D01*
X136153Y248688D01*
X129921Y329723D02*
Y325787D01*
X131889D01*
X132545Y326443D01*
Y327099D01*
X131889Y327755D01*
X129921D01*
X131889D01*
X132545Y328411D01*
Y329067D01*
X131889Y329723D01*
X129921D01*
X136481Y325787D02*
X133857D01*
X136481Y328411D01*
Y329067D01*
X135825Y329723D01*
X134513D01*
X133857Y329067D01*
X123031Y123030D02*
Y119750D01*
X123688Y119095D01*
X124999D01*
X125655Y119750D01*
Y123030D01*
X126967Y122374D02*
X127623Y123030D01*
X128935D01*
X129591Y122374D01*
Y121718D01*
X128935Y121062D01*
X128279D01*
X128935D01*
X129591Y120406D01*
Y119750D01*
X128935Y119095D01*
X127623D01*
X126967Y119750D01*
X140300Y134469D02*
X139644Y135125D01*
X138332D01*
X137676Y134469D01*
Y131845D01*
X138332Y131189D01*
X139644D01*
X140300Y131845D01*
X141612Y131189D02*
X142924D01*
X142268D01*
Y135125D01*
X141612Y134469D01*
X116205Y83738D02*
X115549Y83082D01*
Y81770D01*
X116205Y81114D01*
X118828D01*
X119484Y81770D01*
Y83082D01*
X118828Y83738D01*
X119484Y87674D02*
Y85050D01*
X116860Y87674D01*
X116205D01*
X115549Y87018D01*
Y85706D01*
X116205Y85050D01*
X180500Y137069D02*
X179844Y137725D01*
X178532D01*
X177876Y137069D01*
Y134445D01*
X178532Y133789D01*
X179844D01*
X180500Y134445D01*
X181812Y137069D02*
X182468Y137725D01*
X183780D01*
X184436Y137069D01*
Y136413D01*
X183780Y135757D01*
X183124D01*
X183780D01*
X184436Y135101D01*
Y134445D01*
X183780Y133789D01*
X182468D01*
X181812Y134445D01*
X214500Y94969D02*
X213844Y95625D01*
X212532D01*
X211876Y94969D01*
Y92345D01*
X212532Y91689D01*
X213844D01*
X214500Y92345D01*
X217780Y91689D02*
Y95625D01*
X215812Y93657D01*
X218436D01*
X128608Y39697D02*
X127952Y40353D01*
X126640D01*
X125984Y39697D01*
Y37073D01*
X126640Y36417D01*
X127952D01*
X128608Y37073D01*
X132544Y40353D02*
X129920D01*
Y38385D01*
X131232Y39041D01*
X131888D01*
X132544Y38385D01*
Y37073D01*
X131888Y36417D01*
X130576D01*
X129920Y37073D01*
X198500Y29669D02*
X197844Y30325D01*
X196532D01*
X195876Y29669D01*
Y27045D01*
X196532Y26389D01*
X197844D01*
X198500Y27045D01*
X202436Y30325D02*
X201124Y29669D01*
X199812Y28357D01*
Y27045D01*
X200468Y26389D01*
X201780D01*
X202436Y27045D01*
Y27701D01*
X201780Y28357D01*
X199812D01*
X128608Y28870D02*
X127952Y29526D01*
X126640D01*
X125984Y28870D01*
Y26247D01*
X126640Y25591D01*
X127952D01*
X128608Y26247D01*
X129920Y29526D02*
X132544D01*
Y28870D01*
X129920Y26247D01*
Y25591D01*
X130577Y296587D02*
X129921Y297243D01*
X128609D01*
X127953Y296587D01*
Y293963D01*
X128609Y293307D01*
X129921D01*
X130577Y293963D01*
X131888Y296587D02*
X132545Y297243D01*
X133856D01*
X134512Y296587D01*
Y295931D01*
X133856Y295275D01*
X134512Y294619D01*
Y293963D01*
X133856Y293307D01*
X132545D01*
X131888Y293963D01*
Y294619D01*
X132545Y295275D01*
X131888Y295931D01*
Y296587D01*
X132545Y295275D02*
X133856D01*
X54829Y285099D02*
X54173Y285755D01*
X52861D01*
X52205Y285099D01*
Y282475D01*
X52861Y281819D01*
X54173D01*
X54829Y282475D01*
X56141D02*
X56797Y281819D01*
X58109D01*
X58765Y282475D01*
Y285099D01*
X58109Y285755D01*
X56797D01*
X56141Y285099D01*
Y284443D01*
X56797Y283787D01*
X58765D01*
X45600Y181569D02*
X44944Y182225D01*
X43632D01*
X42976Y181569D01*
Y178945D01*
X43632Y178289D01*
X44944D01*
X45600Y178945D01*
X46912Y178289D02*
X48224D01*
X47568D01*
Y182225D01*
X46912Y181569D01*
X50192D02*
X50848Y182225D01*
X52160D01*
X52816Y181569D01*
Y178945D01*
X52160Y178289D01*
X50848D01*
X50192Y178945D01*
Y181569D01*
X20985Y260123D02*
X20328Y260779D01*
X19017D01*
X18361Y260123D01*
Y257499D01*
X19017Y256843D01*
X20328D01*
X20985Y257499D01*
X22296Y256843D02*
X23608D01*
X22952D01*
Y260779D01*
X22296Y260123D01*
X25576Y256843D02*
X26888D01*
X26232D01*
Y260779D01*
X25576Y260123D01*
X76049Y44684D02*
X74737D01*
X75393D01*
Y41404D01*
X74737Y40748D01*
X74081D01*
X73425Y41404D01*
X77361Y40748D02*
X78673D01*
X78017D01*
Y44684D01*
X77361Y44028D01*
X258900Y226025D02*
X257588D01*
X258244D01*
Y222745D01*
X257588Y222089D01*
X256932D01*
X256276Y222745D01*
X262836Y222089D02*
X260212D01*
X262836Y224713D01*
Y225369D01*
X262180Y226025D01*
X260868D01*
X260212Y225369D01*
X311384Y95766D02*
X310072D01*
X310728D01*
Y92487D01*
X310072Y91831D01*
X309416D01*
X308760Y92487D01*
X312696Y95110D02*
X313351Y95766D01*
X314664D01*
X315319Y95110D01*
Y94454D01*
X314664Y93799D01*
X314007D01*
X314664D01*
X315319Y93143D01*
Y92487D01*
X314664Y91831D01*
X313351D01*
X312696Y92487D01*
X321900Y151125D02*
X320588D01*
X321244D01*
Y147845D01*
X320588Y147189D01*
X319932D01*
X319276Y147845D01*
X325180Y147189D02*
Y151125D01*
X323212Y149157D01*
X325836D01*
X28870Y330233D02*
X27558D01*
X28214D01*
Y326954D01*
X27558Y326297D01*
X26902D01*
X26246Y326954D01*
X32806Y330233D02*
X30182D01*
Y328265D01*
X31494Y328921D01*
X32150D01*
X32806Y328265D01*
Y326954D01*
X32150Y326297D01*
X30838D01*
X30182Y326954D01*
X186676Y256789D02*
Y260725D01*
X188644D01*
X189300Y260069D01*
Y258757D01*
X188644Y258101D01*
X186676D01*
X187988D02*
X189300Y256789D01*
X190612D02*
X191924D01*
X191268D01*
Y260725D01*
X190612Y260069D01*
X238876Y207389D02*
Y211325D01*
X240844D01*
X241500Y210669D01*
Y209357D01*
X240844Y208701D01*
X238876D01*
X240188D02*
X241500Y207389D01*
X245436D02*
X242812D01*
X245436Y210013D01*
Y210669D01*
X244780Y211325D01*
X243468D01*
X242812Y210669D01*
X292323Y84252D02*
Y88188D01*
X294291D01*
X294947Y87532D01*
Y86220D01*
X294291Y85564D01*
X292323D01*
X293635D02*
X294947Y84252D01*
X296259Y87532D02*
X296915Y88188D01*
X298226D01*
X298882Y87532D01*
Y86876D01*
X298226Y86220D01*
X297570D01*
X298226D01*
X298882Y85564D01*
Y84908D01*
X298226Y84252D01*
X296915D01*
X296259Y84908D01*
X148376Y259325D02*
Y256045D01*
X149032Y255389D01*
X150344D01*
X151000Y256045D01*
Y259325D01*
X152312Y255389D02*
X153624D01*
X152968D01*
Y259325D01*
X152312Y258669D01*
X66376Y220925D02*
Y217645D01*
X67032Y216989D01*
X68344D01*
X69000Y217645D01*
Y220925D01*
X72936Y216989D02*
X70312D01*
X72936Y219613D01*
Y220269D01*
X72280Y220925D01*
X70968D01*
X70312Y220269D01*
X12076Y283325D02*
Y280045D01*
X12732Y279389D01*
X14044D01*
X14700Y280045D01*
Y283325D01*
X17980Y279389D02*
Y283325D01*
X16012Y281357D01*
X18636D01*
X87598Y306101D02*
Y302821D01*
X88254Y302165D01*
X89566D01*
X90222Y302821D01*
Y306101D01*
X94158Y305445D02*
X93502Y306101D01*
X92190D01*
X91534Y305445D01*
Y304789D01*
X92190Y304133D01*
X93502D01*
X94158Y303477D01*
Y302821D01*
X93502Y302165D01*
X92190D01*
X91534Y302821D01*
X95470Y306101D02*
Y302165D01*
X97438D01*
X98094Y302821D01*
Y303477D01*
X97438Y304133D01*
X95470D01*
X97438D01*
X98094Y304789D01*
Y305445D01*
X97438Y306101D01*
X95470D01*
X99406Y301509D02*
X102030D01*
X103341Y300853D02*
Y304789D01*
X105309D01*
X105965Y304133D01*
Y302821D01*
X105309Y302165D01*
X103341D01*
X107277Y304789D02*
Y302821D01*
X107933Y302165D01*
X108589Y302821D01*
X109245Y302165D01*
X109901Y302821D01*
Y304789D01*
X111213D02*
Y302165D01*
Y303477D01*
X111869Y304133D01*
X112525Y304789D01*
X113181D01*
X115149Y302165D02*
X116461D01*
X115805D01*
Y306101D01*
X115149Y305445D01*
X146260Y8562D02*
X148884Y4626D01*
Y8562D02*
X146260Y4626D01*
X150196D02*
X151507D01*
X150852D01*
Y8562D01*
X150196Y7906D01*
X75459Y151902D02*
X74803Y152558D01*
X73491D01*
X72835Y151902D01*
Y149278D01*
X73491Y148622D01*
X74803D01*
X75459Y149278D01*
X76770Y148622D02*
X78082D01*
X77426D01*
Y152558D01*
X76770Y151902D01*
X80050D02*
X80706Y152558D01*
X82018D01*
X82674Y151902D01*
Y151246D01*
X82018Y150590D01*
X81362D01*
X82018D01*
X82674Y149934D01*
Y149278D01*
X82018Y148622D01*
X80706D01*
X80050Y149278D01*
X55773Y151902D02*
X55117Y152558D01*
X53806D01*
X53150Y151902D01*
Y149278D01*
X53806Y148622D01*
X55117D01*
X55773Y149278D01*
X57085Y148622D02*
X58397D01*
X57741D01*
Y152558D01*
X57085Y151902D01*
X62333Y148622D02*
Y152558D01*
X60365Y150590D01*
X62989D01*
X134514Y208004D02*
X133858Y208660D01*
X132546D01*
X131890Y208004D01*
Y205380D01*
X132546Y204724D01*
X133858D01*
X134514Y205380D01*
X135826Y204724D02*
X137137D01*
X136481D01*
Y208660D01*
X135826Y208004D01*
X141729Y204724D02*
X139105D01*
X141729Y207348D01*
Y208004D01*
X141073Y208660D01*
X139761D01*
X139105Y208004D01*
X122047Y181101D02*
Y177165D01*
X124015D01*
X124671Y177821D01*
Y180445D01*
X124015Y181101D01*
X122047D01*
X127951Y177165D02*
Y181101D01*
X125983Y179133D01*
X128607D01*
X122047Y162400D02*
Y158465D01*
X124015D01*
X124671Y159121D01*
Y161744D01*
X124015Y162400D01*
X122047D01*
X125983Y161744D02*
X126639Y162400D01*
X127951D01*
X128607Y161744D01*
Y161088D01*
X127951Y160432D01*
X127295D01*
X127951D01*
X128607Y159776D01*
Y159121D01*
X127951Y158465D01*
X126639D01*
X125983Y159121D01*
X110139Y250492D02*
X114075D01*
Y252460D01*
X113419Y253116D01*
X110795D01*
X110139Y252460D01*
Y250492D01*
X114075Y254428D02*
Y255740D01*
Y255084D01*
X110139D01*
X110795Y254428D01*
X110828Y219685D02*
X114764D01*
Y221653D01*
X114108Y222309D01*
X111484D01*
X110828Y221653D01*
Y219685D01*
X114764Y226245D02*
Y223621D01*
X112140Y226245D01*
X111484D01*
X110828Y225589D01*
Y224277D01*
X111484Y223621D01*
X211364Y9841D02*
X210052D01*
X210708D01*
Y6561D01*
X210052Y5906D01*
X209396D01*
X208740Y6561D01*
X212676D02*
X213332Y5906D01*
X214644D01*
X215300Y6561D01*
Y9185D01*
X214644Y9841D01*
X213332D01*
X212676Y9185D01*
Y8529D01*
X213332Y7873D01*
X215300D01*
X287729Y222833D02*
X286417D01*
X287073D01*
Y219554D01*
X286417Y218898D01*
X285761D01*
X285105Y219554D01*
X289040Y222833D02*
X291664D01*
Y222177D01*
X289040Y219554D01*
Y218898D01*
X298100Y299225D02*
X296788D01*
X297444D01*
Y295945D01*
X296788Y295289D01*
X296132D01*
X295476Y295945D01*
X302036Y299225D02*
X300724Y298569D01*
X299412Y297257D01*
Y295945D01*
X300068Y295289D01*
X301380D01*
X302036Y295945D01*
Y296601D01*
X301380Y297257D01*
X299412D01*
X212348Y27558D02*
X211036D01*
X211692D01*
Y24278D01*
X211036Y23622D01*
X210380D01*
X209724Y24278D01*
X213660Y26902D02*
X214316Y27558D01*
X215628D01*
X216284Y26902D01*
Y26246D01*
X215628Y25590D01*
X216284Y24934D01*
Y24278D01*
X215628Y23622D01*
X214316D01*
X213660Y24278D01*
Y24934D01*
X214316Y25590D01*
X213660Y26246D01*
Y26902D01*
X214316Y25590D02*
X215628D01*
X116876Y275689D02*
Y279625D01*
X118844D01*
X119500Y278969D01*
Y277657D01*
X118844Y277001D01*
X116876D01*
X118188D02*
X119500Y275689D01*
X122780D02*
Y279625D01*
X120812Y277657D01*
X123436D01*
X123031Y216535D02*
Y220471D01*
X124999D01*
X125655Y219815D01*
Y218503D01*
X124999Y217847D01*
X123031D01*
X124343D02*
X125655Y216535D01*
X129591Y220471D02*
X126967D01*
Y218503D01*
X128279Y219159D01*
X128935D01*
X129591Y218503D01*
Y217191D01*
X128935Y216535D01*
X127623D01*
X126967Y217191D01*
X141732Y184055D02*
Y187991D01*
X143700D01*
X144356Y187335D01*
Y186023D01*
X143700Y185367D01*
X141732D01*
X143044D02*
X144356Y184055D01*
X145668Y187991D02*
X148292D01*
Y187335D01*
X145668Y184711D01*
Y184055D01*
X141732Y149606D02*
Y153542D01*
X143700D01*
X144356Y152886D01*
Y151574D01*
X143700Y150918D01*
X141732D01*
X143044D02*
X144356Y149606D01*
X148292Y153542D02*
X146980Y152886D01*
X145668Y151574D01*
Y150262D01*
X146324Y149606D01*
X147636D01*
X148292Y150262D01*
Y150918D01*
X147636Y151574D01*
X145668D01*
X45177Y113188D02*
X47801Y109252D01*
Y113188D02*
X45177Y109252D01*
X51737D02*
X49113D01*
X51737Y111876D01*
Y112532D01*
X51081Y113188D01*
X49769D01*
X49113Y112532D01*
X280315Y155904D02*
Y151969D01*
X282283D01*
X282939Y152624D01*
Y155248D01*
X282283Y155904D01*
X280315D01*
X286875Y155248D02*
X286219Y155904D01*
X284907D01*
X284251Y155248D01*
Y154592D01*
X284907Y153936D01*
X286219D01*
X286875Y153280D01*
Y152624D01*
X286219Y151969D01*
X284907D01*
X284251Y152624D01*
X288186Y151969D02*
X289498D01*
X288842D01*
Y155904D01*
X288186Y155248D01*
X291466D02*
X292122Y155904D01*
X293434D01*
X294090Y155248D01*
Y154592D01*
X293434Y153936D01*
X294090Y153280D01*
Y152624D01*
X293434Y151969D01*
X292122D01*
X291466Y152624D01*
Y153280D01*
X292122Y153936D01*
X291466Y154592D01*
Y155248D01*
X292122Y153936D02*
X293434D01*
X295402Y155904D02*
Y151969D01*
X297370D01*
X298026Y152624D01*
Y153280D01*
X297370Y153936D01*
X295402D01*
X297370D01*
X298026Y154592D01*
Y155248D01*
X297370Y155904D01*
X295402D01*
X301961Y151969D02*
X299338D01*
X301961Y154592D01*
Y155248D01*
X301306Y155904D01*
X299994D01*
X299338Y155248D01*
X303273D02*
X303929Y155904D01*
X305241D01*
X305897Y155248D01*
Y152624D01*
X305241Y151969D01*
X303929D01*
X303273Y152624D01*
Y155248D01*
X268307Y229625D02*
Y225689D01*
X270275D01*
X270931Y226345D01*
Y228969D01*
X270275Y229625D01*
X268307D01*
X274867Y228969D02*
X274211Y229625D01*
X272899D01*
X272243Y228969D01*
Y228313D01*
X272899Y227657D01*
X274211D01*
X274867Y227001D01*
Y226345D01*
X274211Y225689D01*
X272899D01*
X272243Y226345D01*
X276179Y225689D02*
X277490D01*
X276835D01*
Y229625D01*
X276179Y228969D01*
X279458D02*
X280114Y229625D01*
X281426D01*
X282082Y228969D01*
Y228313D01*
X281426Y227657D01*
X282082Y227001D01*
Y226345D01*
X281426Y225689D01*
X280114D01*
X279458Y226345D01*
Y227001D01*
X280114Y227657D01*
X279458Y228313D01*
Y228969D01*
X280114Y227657D02*
X281426D01*
X283394Y229625D02*
Y225689D01*
X285362D01*
X286018Y226345D01*
Y227001D01*
X285362Y227657D01*
X283394D01*
X285362D01*
X286018Y228313D01*
Y228969D01*
X285362Y229625D01*
X283394D01*
X289954Y225689D02*
X287330D01*
X289954Y228313D01*
Y228969D01*
X289298Y229625D01*
X287986D01*
X287330Y228969D01*
X291266D02*
X291921Y229625D01*
X293233D01*
X293889Y228969D01*
Y226345D01*
X293233Y225689D01*
X291921D01*
X291266Y226345D01*
Y228969D01*
X270671Y187008D02*
X274606D01*
Y188976D01*
X273950Y189632D01*
X271326D01*
X270671Y188976D01*
Y187008D01*
X271326Y193567D02*
X270671Y192912D01*
Y191600D01*
X271326Y190944D01*
X271983D01*
X272638Y191600D01*
Y192912D01*
X273294Y193567D01*
X273950D01*
X274606Y192912D01*
Y191600D01*
X273950Y190944D01*
X274606Y194879D02*
Y196191D01*
Y195535D01*
X270671D01*
X271326Y194879D01*
Y198159D02*
X270671Y198815D01*
Y200127D01*
X271326Y200783D01*
X271983D01*
X272638Y200127D01*
X273294Y200783D01*
X273950D01*
X274606Y200127D01*
Y198815D01*
X273950Y198159D01*
X273294D01*
X272638Y198815D01*
X271983Y198159D01*
X271326D01*
X272638Y198815D02*
Y200127D01*
X270671Y202095D02*
X274606D01*
Y204063D01*
X273950Y204719D01*
X273294D01*
X272638Y204063D01*
Y202095D01*
Y204063D01*
X271983Y204719D01*
X271326D01*
X270671Y204063D01*
Y202095D01*
X274606Y208654D02*
Y206031D01*
X271983Y208654D01*
X271326D01*
X270671Y207998D01*
Y206687D01*
X271326Y206031D01*
Y209966D02*
X270671Y210622D01*
Y211934D01*
X271326Y212590D01*
X273950D01*
X274606Y211934D01*
Y210622D01*
X273950Y209966D01*
X271326D01*
X319685Y96260D02*
Y100196D01*
X320997Y98884D01*
X322309Y100196D01*
Y96260D01*
X326245Y96916D02*
Y99540D01*
X325589Y100196D01*
X324277D01*
X323621Y99540D01*
Y96916D01*
X324277Y96260D01*
X325589D01*
X324933Y97572D02*
X326245Y96260D01*
X325589D02*
X326245Y96916D01*
X330180Y100196D02*
X327556D01*
Y98228D01*
X328868Y98884D01*
X329524D01*
X330180Y98228D01*
Y96916D01*
X329524Y96260D01*
X328212D01*
X327556Y96916D01*
X309547Y66928D02*
Y62992D01*
X311515D01*
X312171Y63648D01*
Y64304D01*
X311515Y64960D01*
X309547D01*
X311515D01*
X312171Y65616D01*
Y66272D01*
X311515Y66928D01*
X309547D01*
X313483Y65616D02*
Y63648D01*
X314139Y62992D01*
X316107D01*
Y65616D01*
X317419D02*
X320042D01*
X317419Y62992D01*
X320042D01*
X321355Y65616D02*
X323978D01*
X321355Y62992D01*
X323978D01*
X327258D02*
X325946D01*
X325290Y63648D01*
Y64960D01*
X325946Y65616D01*
X327258D01*
X327914Y64960D01*
Y64304D01*
X325290D01*
X329226Y65616D02*
Y62992D01*
Y64304D01*
X329882Y64960D01*
X330538Y65616D01*
X331194D01*
X221949Y50392D02*
X223261D01*
X222605D01*
Y46457D01*
X221949D01*
X223261D01*
X227852D02*
X225229D01*
X227852Y49081D01*
Y49736D01*
X227197Y50392D01*
X225885D01*
X225229Y49736D01*
X231788D02*
X231132Y50392D01*
X229820D01*
X229164Y49736D01*
Y47113D01*
X229820Y46457D01*
X231132D01*
X231788Y47113D01*
X233100Y46457D02*
X235724Y49081D01*
X239660Y49736D02*
X239004Y50392D01*
X237692D01*
X237036Y49736D01*
Y49081D01*
X237692Y48425D01*
X239004D01*
X239660Y47769D01*
Y47113D01*
X239004Y46457D01*
X237692D01*
X237036Y47113D01*
X243595Y49081D02*
X241628D01*
X240972Y48425D01*
Y47113D01*
X241628Y46457D01*
X243595D01*
X244907Y49081D02*
Y46457D01*
Y47769D01*
X245563Y48425D01*
X246219Y49081D01*
X246875D01*
X250811Y46457D02*
X249499D01*
X248843Y47113D01*
Y48425D01*
X249499Y49081D01*
X250811D01*
X251467Y48425D01*
Y47769D01*
X248843D01*
X254747Y46457D02*
X253435D01*
X252779Y47113D01*
Y48425D01*
X253435Y49081D01*
X254747D01*
X255403Y48425D01*
Y47769D01*
X252779D01*
X256715Y46457D02*
Y49081D01*
X258682D01*
X259338Y48425D01*
Y46457D01*
X270955Y49536D02*
X270300Y48880D01*
Y47568D01*
X270955Y46912D01*
X271611D01*
X272267Y47568D01*
Y48880D01*
X272923Y49536D01*
X273579D01*
X274235Y48880D01*
Y47568D01*
X273579Y46912D01*
X270300Y50848D02*
X274235D01*
X272923Y52160D01*
X274235Y53472D01*
X270300D01*
X280584Y46920D02*
X281240D01*
X282552Y48232D01*
X281240Y49543D01*
X280584D01*
X282552Y48232D02*
X284520D01*
X290848Y47047D02*
X294783Y49671D01*
X290848D02*
X294783Y47047D01*
X301281Y46555D02*
X303905D01*
X305217Y47867D01*
X303905Y49179D01*
X301281D01*
X301937Y53115D02*
X301281Y52459D01*
Y51147D01*
X301937Y50491D01*
X304561D01*
X305217Y51147D01*
Y52459D01*
X304561Y53115D01*
X301937Y57050D02*
X301281Y56394D01*
Y55083D01*
X301937Y54427D01*
X304561D01*
X305217Y55083D01*
Y56394D01*
X304561Y57050D01*
X306988Y110235D02*
Y107611D01*
X308300Y106299D01*
X309612Y107611D01*
Y110235D01*
X313548Y109579D02*
X312892Y110235D01*
X311580D01*
X310924Y109579D01*
Y106955D01*
X311580Y106299D01*
X312892D01*
X313548Y106955D01*
X317483Y109579D02*
X316828Y110235D01*
X315516D01*
X314860Y109579D01*
Y106955D01*
X315516Y106299D01*
X316828D01*
X317483Y106955D01*
X283760Y186613D02*
Y183989D01*
X285072Y182677D01*
X286384Y183989D01*
Y186613D01*
X290319Y185957D02*
X289664Y186613D01*
X288351D01*
X287696Y185957D01*
Y183333D01*
X288351Y182677D01*
X289664D01*
X290319Y183333D01*
X294255Y185957D02*
X293599Y186613D01*
X292287D01*
X291631Y185957D01*
Y183333D01*
X292287Y182677D01*
X293599D01*
X294255Y183333D01*
X283563Y255806D02*
Y253182D01*
X284875Y251870D01*
X286187Y253182D01*
Y255806D01*
X290123Y255150D02*
X289467Y255806D01*
X288155D01*
X287499Y255150D01*
Y252526D01*
X288155Y251870D01*
X289467D01*
X290123Y252526D01*
X294058Y255150D02*
X293402Y255806D01*
X292090D01*
X291435Y255150D01*
Y252526D01*
X292090Y251870D01*
X293402D01*
X294058Y252526D01*
X110533Y24803D02*
X113157D01*
X114469Y26115D01*
X113157Y27427D01*
X110533D01*
X111189Y31363D02*
X110533Y30707D01*
Y29395D01*
X111189Y28739D01*
X113812D01*
X114469Y29395D01*
Y30707D01*
X113812Y31363D01*
X111189Y35298D02*
X110533Y34642D01*
Y33331D01*
X111189Y32675D01*
X113812D01*
X114469Y33331D01*
Y34642D01*
X113812Y35298D01*
X104626Y21949D02*
X100690D01*
X102002Y23261D01*
X100690Y24573D01*
X104626D01*
X100690Y27852D02*
Y26540D01*
X101346Y25885D01*
X103970D01*
X104626Y26540D01*
Y27852D01*
X103970Y28508D01*
X101346D01*
X100690Y27852D01*
X101346Y32444D02*
X100690Y31788D01*
Y30476D01*
X101346Y29820D01*
X102002D01*
X102658Y30476D01*
Y31788D01*
X103314Y32444D01*
X103970D01*
X104626Y31788D01*
Y30476D01*
X103970Y29820D01*
X100690Y33756D02*
Y35068D01*
Y34412D01*
X104626D01*
Y33756D01*
Y35068D01*
X90421Y27033D02*
X89765Y26377D01*
Y25065D01*
X90421Y24409D01*
X93045D01*
X93701Y25065D01*
Y26377D01*
X93045Y27033D01*
X91733D01*
Y25721D01*
X93701Y28345D02*
X89765D01*
X93701Y30969D01*
X89765D01*
Y32281D02*
X93701D01*
Y34249D01*
X93045Y34905D01*
X90421D01*
X89765Y34249D01*
Y32281D01*
X114764Y60039D02*
X110828D01*
X112140Y61351D01*
X110828Y62663D01*
X114764D01*
X110828Y63975D02*
Y65287D01*
Y64631D01*
X114764D01*
Y63975D01*
Y65287D01*
X111484Y69879D02*
X110828Y69223D01*
Y67911D01*
X111484Y67255D01*
X112140D01*
X112796Y67911D01*
Y69223D01*
X113452Y69879D01*
X114108D01*
X114764Y69223D01*
Y67911D01*
X114108Y67255D01*
X110828Y73159D02*
Y71847D01*
X111484Y71191D01*
X114108D01*
X114764Y71847D01*
Y73159D01*
X114108Y73814D01*
X111484D01*
X110828Y73159D01*
X100001Y62675D02*
X99345Y62019D01*
Y60707D01*
X100001Y60051D01*
X100657D01*
X101313Y60707D01*
Y62019D01*
X101969Y62675D01*
X102625D01*
X103281Y62019D01*
Y60707D01*
X102625Y60051D01*
X100001Y66610D02*
X99345Y65954D01*
Y64643D01*
X100001Y63986D01*
X102625D01*
X103281Y64643D01*
Y65954D01*
X102625Y66610D01*
X99345Y67922D02*
X103281D01*
X101969D01*
X99345Y70546D01*
X101313Y68578D01*
X103281Y70546D01*
X93110Y59941D02*
X89174D01*
Y61909D01*
X89830Y62565D01*
X91142D01*
X91798Y61909D01*
Y59941D01*
Y61253D02*
X93110Y62565D01*
X89174Y66501D02*
Y63877D01*
X93110D01*
Y66501D01*
X91142Y63877D02*
Y65189D01*
X89830Y70436D02*
X89174Y69780D01*
Y68468D01*
X89830Y67812D01*
X90486D01*
X91142Y68468D01*
Y69780D01*
X91798Y70436D01*
X92454D01*
X93110Y69780D01*
Y68468D01*
X92454Y67812D01*
X89174Y74372D02*
Y71748D01*
X93110D01*
Y74372D01*
X91142Y71748D02*
Y73060D01*
X89174Y75684D02*
Y78308D01*
Y76996D01*
X93110D01*
X312074Y48982D02*
X311419Y48326D01*
Y47014D01*
X312074Y46358D01*
X314698D01*
X315354Y47014D01*
Y48326D01*
X314698Y48982D01*
X313387D01*
Y47670D01*
X315354Y50294D02*
X311419D01*
X315354Y52918D01*
X311419D01*
Y54230D02*
X315354D01*
Y56198D01*
X314698Y56854D01*
X312074D01*
X311419Y56198D01*
Y54230D01*
X309218Y76114D02*
X308562Y76770D01*
X307250D01*
X306594Y76114D01*
Y73491D01*
X307250Y72835D01*
X308562D01*
X309218Y73491D01*
Y74803D01*
X307906D01*
X310530Y72835D02*
Y76770D01*
X313154Y72835D01*
Y76770D01*
X314466D02*
Y72835D01*
X316434D01*
X317090Y73491D01*
Y76114D01*
X316434Y76770D01*
X314466D01*
X309218Y119422D02*
X308562Y120078D01*
X307250D01*
X306594Y119422D01*
Y116798D01*
X307250Y116142D01*
X308562D01*
X309218Y116798D01*
Y118110D01*
X307906D01*
X310530Y116142D02*
Y120078D01*
X313154Y116142D01*
Y120078D01*
X314466D02*
Y116142D01*
X316434D01*
X317090Y116798D01*
Y119422D01*
X316434Y120078D01*
X314466D01*
X287171Y171981D02*
X286515Y172636D01*
X285203D01*
X284547Y171981D01*
Y169357D01*
X285203Y168701D01*
X286515D01*
X287171Y169357D01*
Y170669D01*
X285859D01*
X288483Y168701D02*
Y172636D01*
X291107Y168701D01*
Y172636D01*
X292419D02*
Y168701D01*
X294387D01*
X295042Y169357D01*
Y171981D01*
X294387Y172636D01*
X292419D01*
X285892Y240977D02*
X285236Y241633D01*
X283924D01*
X283268Y240977D01*
Y238353D01*
X283924Y237697D01*
X285236D01*
X285892Y238353D01*
Y239665D01*
X284580D01*
X287204Y237697D02*
Y241633D01*
X289827Y237697D01*
Y241633D01*
X291139D02*
Y237697D01*
X293107D01*
X293763Y238353D01*
Y240977D01*
X293107Y241633D01*
X291139D01*
X289535Y279888D02*
X288879Y279232D01*
Y277920D01*
X289535Y277264D01*
X292159D01*
X292815Y277920D01*
Y279232D01*
X292159Y279888D01*
X290847D01*
Y278576D01*
X292815Y281200D02*
X288879D01*
X292815Y283823D01*
X288879D01*
Y285135D02*
X292815D01*
Y287103D01*
X292159Y287759D01*
X289535D01*
X288879Y287103D01*
Y285135D01*
X286187Y214107D02*
X285531Y214762D01*
X284219D01*
X283563Y214107D01*
Y211483D01*
X284219Y210827D01*
X285531D01*
X286187Y211483D01*
Y212795D01*
X284875D01*
X287499Y210827D02*
Y214762D01*
X290123Y210827D01*
Y214762D01*
X291435D02*
Y210827D01*
X293402D01*
X294058Y211483D01*
Y214107D01*
X293402Y214762D01*
X291435D01*
X235893Y34809D02*
X235238Y34153D01*
Y32841D01*
X235893Y32185D01*
X238517D01*
X239173Y32841D01*
Y34153D01*
X238517Y34809D01*
X237205D01*
Y33497D01*
X239173Y36121D02*
X235238D01*
X239173Y38745D01*
X235238D01*
Y40056D02*
X239173D01*
Y42024D01*
X238517Y42680D01*
X235893D01*
X235238Y42024D01*
Y40056D01*
X225198Y32480D02*
X227822D01*
X229134Y33792D01*
X227822Y35104D01*
X225198D01*
X225854Y39040D02*
X225198Y38384D01*
Y37072D01*
X225854Y36416D01*
X228478D01*
X229134Y37072D01*
Y38384D01*
X228478Y39040D01*
X225854Y42976D02*
X225198Y42320D01*
Y41008D01*
X225854Y40352D01*
X228478D01*
X229134Y41008D01*
Y42320D01*
X228478Y42976D01*
X245539Y35498D02*
X244883Y34842D01*
Y33530D01*
X245539Y32874D01*
X246195D01*
X246851Y33530D01*
Y34842D01*
X247507Y35498D01*
X248163D01*
X248819Y34842D01*
Y33530D01*
X248163Y32874D01*
X244883Y36810D02*
X248819D01*
Y38778D01*
X248163Y39434D01*
X245539D01*
X244883Y38778D01*
Y36810D01*
X248819Y40745D02*
X246195D01*
X244883Y42057D01*
X246195Y43369D01*
X248819D01*
X246851D01*
Y40745D01*
X255480Y36285D02*
X254824Y35629D01*
Y34317D01*
X255480Y33661D01*
X256136D01*
X256792Y34317D01*
Y35629D01*
X257448Y36285D01*
X258104D01*
X258760Y35629D01*
Y34317D01*
X258104Y33661D01*
X255480Y40221D02*
X254824Y39565D01*
Y38253D01*
X255480Y37597D01*
X258104D01*
X258760Y38253D01*
Y39565D01*
X258104Y40221D01*
X254824Y41533D02*
X258760D01*
Y44157D01*
X272508Y19553D02*
X271852Y18897D01*
Y17585D01*
X272508Y16929D01*
X273164D01*
X273819Y17585D01*
Y18897D01*
X274476Y19553D01*
X275131D01*
X275787Y18897D01*
Y17585D01*
X275131Y16929D01*
X282678Y16240D02*
X285302D01*
X286614Y17552D01*
X285302Y18864D01*
X282678D01*
X283334Y22800D02*
X282678Y22144D01*
Y20832D01*
X283334Y20176D01*
X285958D01*
X286614Y20832D01*
Y22144D01*
X285958Y22800D01*
X283334Y26735D02*
X282678Y26079D01*
Y24768D01*
X283334Y24112D01*
X285958D01*
X286614Y24768D01*
Y26079D01*
X285958Y26735D01*
X292980Y18864D02*
X292324Y18208D01*
Y16896D01*
X292980Y16240D01*
X295604D01*
X296260Y16896D01*
Y18208D01*
X295604Y18864D01*
X294292D01*
Y17552D01*
X296260Y20176D02*
X292324D01*
X296260Y22800D01*
X292324D01*
Y24112D02*
X296260D01*
Y26079D01*
X295604Y26735D01*
X292980D01*
X292324Y26079D01*
Y24112D01*
X277559Y196752D02*
X278871D01*
X278215D01*
Y200688D01*
X277559Y200032D01*
X280839Y200688D02*
Y196752D01*
X282151Y198064D01*
X283463Y196752D01*
Y200688D01*
X284775D02*
X286087D01*
X285431D01*
Y196752D01*
X284775D01*
X286087D01*
X288054D02*
Y200688D01*
X290022D01*
X290678Y200032D01*
Y198720D01*
X290022Y198064D01*
X288054D01*
X289366D02*
X290678Y196752D01*
X294614Y200688D02*
X291990D01*
Y196752D01*
X294614D01*
X291990Y198720D02*
X293302D01*
X275787Y266043D02*
X277099D01*
X276443D01*
Y269979D01*
X275787Y269323D01*
X279067Y269979D02*
Y266043D01*
X280379Y267355D01*
X281691Y266043D01*
Y269979D01*
X283003D02*
X284315D01*
X283659D01*
Y266043D01*
X283003D01*
X284315D01*
X286283D02*
Y269979D01*
X288251D01*
X288907Y269323D01*
Y268011D01*
X288251Y267355D01*
X286283D01*
X287595D02*
X288907Y266043D01*
X292842Y269979D02*
X290218D01*
Y266043D01*
X292842D01*
X290218Y268011D02*
X291530D01*
D45*
X192229Y211614D02*
Y226181D01*
X154229Y211614D02*
X192229D01*
X154229D02*
Y226181D01*
Y208465D02*
X192229D01*
Y226181D01*
X154229D02*
X192229D01*
X154229Y208465D02*
Y226181D01*
X11512Y258662D02*
Y276378D01*
X49512D01*
Y258662D02*
Y276378D01*
X11512Y258662D02*
X49512D01*
X11512Y261811D02*
Y276378D01*
Y261811D02*
X49512D01*
Y276378D01*
M02*
