M48
;Layer_Color=9474304
;FILE_FORMAT=2:5
INCH,LZ
;TYPE=PLATED
T1F00S00C0.02756
T2F00S00C0.02800
T3F00S00C0.03150
T4F00S00C0.03543
T5F00S00C0.03819
T6F00S00C0.04724
T7F00S00C0.06496
T8F00S00C0.13110
T9F00S00C0.15748
;TYPE=NON_PLATED
T10F00S00C0.03150
T11F00S00C0.03346
T12F00S00C0.04331
T13F00S00C0.04724
%
T01
X0063779Y0267815
X0071653
T02
X0181102Y0097441
X0177165Y0103347
X0199803Y0126969
X0183071Y0162402
X0159449
X009941Y0147638
X0126673Y010561
X0125Y005315
X0107169Y0061709
X0075787Y0052165
X008563Y0090551
X0157441Y0079764
X0141732Y0043307
X0124016Y0187992
Y0198819
X011811Y0193898
Y0183071
X0139665Y0219587
X013189Y024311
X0111221Y0246063
X0098425
X0062402Y0226083
X0146653Y0262795
X0188779Y0266929
X0230315Y029626
X0270669Y0260827
T03
X0227205Y0008858
X0237205
X0247205
X0257205
X0274449Y0008858
X0284449
X0294449
X0324803Y0075787
Y0085787
Y010811
Y011811
Y012811
Y013811
X0303307Y0038386
X0293307
X0283307
X0273307
X0257205Y0024606
X0247205
X0237205
X0227205
X0111969Y0042441
X0101969
X0091969
Y0052441
X0101969
X0111969
X0261811Y0192913
Y0202913
Y0212913
T04
X0159354Y0020516
X0178567
X0076535Y0125
X0057323
T05
X0164882Y0298228
X0172913
X0180945
X0188976
X0184961Y0305236
X0176929
X0168898
X0160866
X0236653
X0244685
X0252716
X0260748
X0264764Y0298228
X0256732
X0248701
X0240669
T06
X0020512Y0267717
X0030512
X0040512
X0049868Y0304644
X0063648
X0163228Y021752
X0173228
X0183228
T07
X0142953Y0301732
X0206968
X021874
X0282756
T08
X0149961Y0315236
X0199961
X0225748
X0275748
T09
X0015748Y0015748
X0318898
X0015748Y0318898
X0318898
T10
X0313307Y0038386
T11
X0099606Y0314961
X0119291
T12
X0095669Y032559
X0123228
T13
X030315Y017126
Y0185039
Y0198819
Y0212598
X0302165Y0240158
Y0253937
Y0267717
Y0281496
M30
