G04 Layer_Color=8388736*
%FSLAX25Y25*%
%MOIN*%
G70*
G01*
G75*
%ADD46R,0.48819X0.07449*%
%ADD47R,0.07528X0.48858*%
%ADD48R,0.48898X0.07449*%
%ADD49R,0.07531X0.48819*%
%ADD50R,0.04252X0.03858*%
%ADD51R,0.04055X0.09764*%
%ADD52R,0.13307X0.09764*%
%ADD53R,0.03858X0.04252*%
%ADD54O,0.07402X0.01496*%
%ADD55O,0.01496X0.07402*%
%ADD56O,0.05630X0.02874*%
%ADD57O,0.08189X0.02677*%
%ADD58R,0.08189X0.02677*%
%ADD59R,0.01890X0.05630*%
%ADD60C,0.07402*%
%ADD61R,0.07402X0.07402*%
%ADD62C,0.08189*%
%ADD63R,0.07402X0.07402*%
%ADD64C,0.23937*%
%ADD65O,0.08189X0.09764*%
%ADD66C,0.05433*%
%ADD67C,0.06024*%
G04:AMPARAMS|DCode=68|XSize=81.89mil|YSize=77.95mil|CornerRadius=20.28mil|HoleSize=0mil|Usage=FLASHONLY|Rotation=0.000|XOffset=0mil|YOffset=0mil|HoleType=Round|Shape=RoundedRectangle|*
%AMROUNDEDRECTD68*
21,1,0.08189,0.03740,0,0,0.0*
21,1,0.04134,0.07795,0,0,0.0*
1,1,0.04055,0.02067,-0.01870*
1,1,0.04055,-0.02067,-0.01870*
1,1,0.04055,-0.02067,0.01870*
1,1,0.04055,0.02067,0.01870*
%
%ADD68ROUNDEDRECTD68*%
%ADD69C,0.09764*%
%ADD70R,0.09764X0.09764*%
%ADD71C,0.10157*%
%ADD72C,0.20118*%
%ADD73C,0.06102*%
%ADD74R,0.09764X0.09764*%
%ADD75C,0.05315*%
D46*
X169650Y113449D02*
D03*
D47*
X199465Y83653D02*
D03*
D48*
X169610Y53937D02*
D03*
D49*
X139994Y83713D02*
D03*
D50*
X6693Y180217D02*
D03*
Y173917D02*
D03*
X32972Y237303D02*
D03*
Y231004D02*
D03*
X140748Y30315D02*
D03*
Y36614D02*
D03*
X241142Y195472D02*
D03*
Y201772D02*
D03*
X119095Y233268D02*
D03*
Y226969D02*
D03*
Y248622D02*
D03*
Y254921D02*
D03*
X202756Y189764D02*
D03*
Y196063D02*
D03*
Y220669D02*
D03*
Y214370D02*
D03*
X173228Y196063D02*
D03*
Y189764D02*
D03*
X140748Y243504D02*
D03*
Y237205D02*
D03*
X125984Y83465D02*
D03*
Y89764D02*
D03*
X214173Y86024D02*
D03*
Y79724D02*
D03*
X45276Y172638D02*
D03*
Y166339D02*
D03*
X126575Y205906D02*
D03*
Y212205D02*
D03*
X119095Y263779D02*
D03*
Y270079D02*
D03*
Y218504D02*
D03*
Y212205D02*
D03*
X143701Y179528D02*
D03*
Y173228D02*
D03*
Y160039D02*
D03*
Y166339D02*
D03*
D51*
X34646Y182677D02*
D03*
X25591D02*
D03*
X16535D02*
D03*
D52*
X25591Y159843D02*
D03*
D53*
X41732Y243110D02*
D03*
X48031D02*
D03*
X129161Y20516D02*
D03*
X135461D02*
D03*
X197961D02*
D03*
X204260D02*
D03*
X126969Y166339D02*
D03*
X133268D02*
D03*
X126575Y173228D02*
D03*
X132874D02*
D03*
X173425Y259842D02*
D03*
X167126D02*
D03*
X173031Y182087D02*
D03*
X179331D02*
D03*
X173031Y174213D02*
D03*
X179331D02*
D03*
X139764Y125394D02*
D03*
X146063D02*
D03*
X179921Y127953D02*
D03*
X186221D02*
D03*
X121063Y295276D02*
D03*
X114764D02*
D03*
X26772Y250984D02*
D03*
X20472D02*
D03*
X188779D02*
D03*
X195079D02*
D03*
X70472Y143701D02*
D03*
X76772D02*
D03*
X63386D02*
D03*
X57087D02*
D03*
X303740Y86614D02*
D03*
X310039D02*
D03*
D54*
X139961Y107323D02*
D03*
Y105354D02*
D03*
Y103386D02*
D03*
Y101417D02*
D03*
Y99449D02*
D03*
Y97480D02*
D03*
Y95512D02*
D03*
Y93543D02*
D03*
Y91575D02*
D03*
Y89606D02*
D03*
Y87638D02*
D03*
Y85669D02*
D03*
Y83701D02*
D03*
Y81732D02*
D03*
Y79764D02*
D03*
Y77795D02*
D03*
Y75827D02*
D03*
Y73858D02*
D03*
Y71890D02*
D03*
Y69921D02*
D03*
Y67953D02*
D03*
Y65984D02*
D03*
Y64016D02*
D03*
Y62047D02*
D03*
Y60079D02*
D03*
X199409D02*
D03*
Y62047D02*
D03*
Y64016D02*
D03*
Y65984D02*
D03*
Y67953D02*
D03*
Y69921D02*
D03*
Y71890D02*
D03*
Y73858D02*
D03*
Y75827D02*
D03*
Y77795D02*
D03*
Y79764D02*
D03*
Y81732D02*
D03*
Y83701D02*
D03*
Y85669D02*
D03*
Y87638D02*
D03*
Y89606D02*
D03*
Y91575D02*
D03*
Y93543D02*
D03*
Y95512D02*
D03*
Y97480D02*
D03*
Y99449D02*
D03*
Y101417D02*
D03*
Y103386D02*
D03*
Y105354D02*
D03*
Y107323D02*
D03*
D55*
X146063Y53976D02*
D03*
X148031D02*
D03*
X150000D02*
D03*
X151969D02*
D03*
X153937D02*
D03*
X155905D02*
D03*
X157874D02*
D03*
X159843D02*
D03*
X161811D02*
D03*
X163779D02*
D03*
X165748D02*
D03*
X167717D02*
D03*
X169685D02*
D03*
X171653D02*
D03*
X173622D02*
D03*
X175591D02*
D03*
X177559D02*
D03*
X179528D02*
D03*
X181496D02*
D03*
X183465D02*
D03*
X185433D02*
D03*
X187402D02*
D03*
X189370D02*
D03*
X191339D02*
D03*
X193307D02*
D03*
Y113425D02*
D03*
X191339D02*
D03*
X189370D02*
D03*
X187402D02*
D03*
X185433D02*
D03*
X183465D02*
D03*
X181496D02*
D03*
X179528D02*
D03*
X177559D02*
D03*
X175591D02*
D03*
X173622D02*
D03*
X171653D02*
D03*
X169685D02*
D03*
X167717D02*
D03*
X165748D02*
D03*
X163779D02*
D03*
X161811D02*
D03*
X159843D02*
D03*
X157874D02*
D03*
X155905D02*
D03*
X153937D02*
D03*
X151969D02*
D03*
X150000D02*
D03*
X148031D02*
D03*
X146063D02*
D03*
D56*
X173228Y233189D02*
D03*
Y238189D02*
D03*
Y243189D02*
D03*
Y248189D02*
D03*
X151378Y233189D02*
D03*
Y238189D02*
D03*
Y243189D02*
D03*
Y248189D02*
D03*
D57*
X108071Y167992D02*
D03*
Y172992D02*
D03*
Y177992D02*
D03*
Y182992D02*
D03*
Y187992D02*
D03*
Y192992D02*
D03*
Y197992D02*
D03*
Y202992D02*
D03*
Y207992D02*
D03*
X71063Y167992D02*
D03*
Y172992D02*
D03*
Y177992D02*
D03*
Y182992D02*
D03*
Y187992D02*
D03*
Y192992D02*
D03*
Y197992D02*
D03*
Y202992D02*
D03*
D58*
Y207992D02*
D03*
D59*
X114567Y314961D02*
D03*
X112008D02*
D03*
X109449D02*
D03*
X106890D02*
D03*
X104331D02*
D03*
D60*
X313307Y38386D02*
D03*
X303307D02*
D03*
X293307D02*
D03*
X283307D02*
D03*
X237205Y8858D02*
D03*
X247205D02*
D03*
X257205D02*
D03*
X237205Y24606D02*
D03*
X247205D02*
D03*
X257205D02*
D03*
X261811Y202913D02*
D03*
Y212913D02*
D03*
X91969Y42441D02*
D03*
Y52441D02*
D03*
X101969Y42441D02*
D03*
X111969D02*
D03*
X101969Y52441D02*
D03*
X324803Y75787D02*
D03*
Y128110D02*
D03*
Y118110D02*
D03*
Y108110D02*
D03*
X294449Y8858D02*
D03*
X284449D02*
D03*
D61*
X273307Y38386D02*
D03*
X227205Y8858D02*
D03*
Y24606D02*
D03*
X111969Y52441D02*
D03*
X274449Y8858D02*
D03*
D62*
X159354Y20516D02*
D03*
X178567D02*
D03*
X57323Y125000D02*
D03*
X76535D02*
D03*
D63*
X261811Y192913D02*
D03*
X324803Y85787D02*
D03*
Y138110D02*
D03*
D64*
X15748Y318898D02*
D03*
Y15748D02*
D03*
X318898D02*
D03*
Y318898D02*
D03*
D65*
X163228Y217520D02*
D03*
X173228D02*
D03*
X183228D02*
D03*
X40512Y267717D02*
D03*
X30512D02*
D03*
X20512D02*
D03*
D66*
X63779Y267815D02*
D03*
X71653D02*
D03*
D67*
X119291Y314961D02*
D03*
X99606D02*
D03*
D68*
X123228Y325590D02*
D03*
X95669D02*
D03*
D69*
X302165Y281496D02*
D03*
Y267717D02*
D03*
Y253937D02*
D03*
X49868Y304644D02*
D03*
X303150Y212598D02*
D03*
Y198819D02*
D03*
Y185039D02*
D03*
D70*
X302165Y240158D02*
D03*
X303150Y171260D02*
D03*
D71*
X282756Y301732D02*
D03*
X218740D02*
D03*
X142953D02*
D03*
X206968D02*
D03*
D72*
X225748Y315236D02*
D03*
X275748D02*
D03*
X199961D02*
D03*
X149961D02*
D03*
D73*
X264764Y298228D02*
D03*
X260748Y305236D02*
D03*
X256732Y298228D02*
D03*
X252716Y305236D02*
D03*
X248701Y298228D02*
D03*
X244685Y305236D02*
D03*
X240669Y298228D02*
D03*
X236653Y305236D02*
D03*
X160866D02*
D03*
X164882Y298228D02*
D03*
X168898Y305236D02*
D03*
X172913Y298228D02*
D03*
X176929Y305236D02*
D03*
X180945Y298228D02*
D03*
X184961Y305236D02*
D03*
X188976Y298228D02*
D03*
D74*
X63648Y304644D02*
D03*
D75*
X177165Y103347D02*
D03*
X181102Y97441D02*
D03*
X270669Y260827D02*
D03*
X146653Y262795D02*
D03*
X99410Y147638D02*
D03*
X159449Y162402D02*
D03*
X183071D02*
D03*
X125000Y53150D02*
D03*
X85630Y90551D02*
D03*
X124016Y198819D02*
D03*
X118110Y183071D02*
D03*
X124016Y187992D02*
D03*
X118110Y193898D02*
D03*
X230315Y296260D02*
D03*
X75787Y52165D02*
D03*
X141732Y43307D02*
D03*
X199803Y126969D02*
D03*
X111221Y246063D02*
D03*
X98425D02*
D03*
X131890Y243110D02*
D03*
X188779Y266929D02*
D03*
X107169Y61709D02*
D03*
X139665Y219587D02*
D03*
X62402Y226083D02*
D03*
X126673Y105610D02*
D03*
X157441Y79764D02*
D03*
M02*
