G04 Layer_Physical_Order=2*
G04 Layer_Color=16711680*
%FSLAX25Y25*%
%MOIN*%
G70*
G01*
G75*
%ADD20C,0.01000*%
%ADD21C,0.01968*%
%ADD22C,0.03937*%
%ADD26C,0.07087*%
%ADD27R,0.07087X0.07087*%
%ADD28C,0.07874*%
%ADD29R,0.07087X0.07087*%
%ADD30C,0.23622*%
%ADD31O,0.07874X0.09449*%
%ADD32C,0.05118*%
%ADD33C,0.05709*%
G04:AMPARAMS|DCode=34|XSize=78.74mil|YSize=74.8mil|CornerRadius=18.7mil|HoleSize=0mil|Usage=FLASHONLY|Rotation=0.000|XOffset=0mil|YOffset=0mil|HoleType=Round|Shape=RoundedRectangle|*
%AMROUNDEDRECTD34*
21,1,0.07874,0.03740,0,0,0.0*
21,1,0.04134,0.07480,0,0,0.0*
1,1,0.03740,0.02067,-0.01870*
1,1,0.03740,-0.02067,-0.01870*
1,1,0.03740,-0.02067,0.01870*
1,1,0.03740,0.02067,0.01870*
%
%ADD34ROUNDEDRECTD34*%
%ADD35C,0.09449*%
%ADD36R,0.09449X0.09449*%
%ADD37C,0.09842*%
%ADD38C,0.19803*%
%ADD39C,0.05787*%
%ADD40R,0.09449X0.09449*%
%ADD41C,0.05000*%
G36*
X332677Y1969D02*
X1969D01*
Y332677D01*
X332677D01*
Y1969D01*
D02*
G37*
%LPC*%
G36*
X324803Y132478D02*
X323673Y132329D01*
X322619Y131893D01*
X321714Y131199D01*
X321020Y130294D01*
X320584Y129241D01*
X320458Y128281D01*
X202818D01*
X202675Y128626D01*
X202148Y129313D01*
X201461Y129840D01*
X200661Y130171D01*
X199803Y130284D01*
X198945Y130171D01*
X198145Y129840D01*
X197459Y129313D01*
X196932Y128626D01*
X196600Y127827D01*
X196487Y126969D01*
X196600Y126110D01*
X196932Y125311D01*
X197459Y124624D01*
X198145Y124097D01*
X198945Y123766D01*
X199803Y123653D01*
X200661Y123766D01*
X201461Y124097D01*
X202148Y124624D01*
X202675Y125311D01*
X202818Y125656D01*
X321228D01*
X321714Y125022D01*
X322619Y124327D01*
X323673Y123891D01*
X324803Y123742D01*
X325934Y123891D01*
X326987Y124327D01*
X327892Y125022D01*
X328586Y125926D01*
X329022Y126980D01*
X329171Y128110D01*
X329022Y129241D01*
X328586Y130294D01*
X327892Y131199D01*
X326987Y131893D01*
X325934Y132329D01*
X324803Y132478D01*
D02*
G37*
G36*
X324303Y137610D02*
X320240D01*
Y134567D01*
X320318Y134177D01*
X320539Y133846D01*
X320870Y133625D01*
X321260Y133547D01*
X324303D01*
Y137610D01*
D02*
G37*
G36*
X57323Y129765D02*
X56090Y129603D01*
X54940Y129127D01*
X53953Y128369D01*
X53196Y127383D01*
X52720Y126233D01*
X52558Y125000D01*
X52720Y123767D01*
X53196Y122617D01*
X53953Y121631D01*
X54940Y120873D01*
X56090Y120397D01*
X57323Y120235D01*
X58556Y120397D01*
X59705Y120873D01*
X60692Y121631D01*
X61450Y122617D01*
X61926Y123767D01*
X62088Y125000D01*
X61926Y126233D01*
X61450Y127383D01*
X60692Y128369D01*
X59705Y129127D01*
X58556Y129603D01*
X57323Y129765D01*
D02*
G37*
G36*
X76535D02*
X75302Y129603D01*
X74153Y129127D01*
X73166Y128369D01*
X72409Y127383D01*
X71933Y126233D01*
X71770Y125000D01*
X71933Y123767D01*
X72409Y122617D01*
X73166Y121631D01*
X74153Y120873D01*
X75302Y120397D01*
X76535Y120235D01*
X77769Y120397D01*
X78918Y120873D01*
X79905Y121631D01*
X80662Y122617D01*
X81138Y123767D01*
X81301Y125000D01*
X81138Y126233D01*
X80662Y127383D01*
X79905Y128369D01*
X78918Y129127D01*
X77769Y129603D01*
X76535Y129765D01*
D02*
G37*
G36*
X329366Y137610D02*
X325303D01*
Y133547D01*
X328346D01*
X328737Y133625D01*
X329067Y133846D01*
X329288Y134177D01*
X329366Y134567D01*
Y137610D01*
D02*
G37*
G36*
X98909Y147138D02*
X95945D01*
X95999Y146724D01*
X96352Y145873D01*
X96913Y145142D01*
X97644Y144581D01*
X98496Y144228D01*
X98909Y144173D01*
Y147138D01*
D02*
G37*
G36*
X102874D02*
X99910D01*
Y144173D01*
X100323Y144228D01*
X101174Y144581D01*
X101906Y145142D01*
X102467Y145873D01*
X102819Y146724D01*
X102874Y147138D01*
D02*
G37*
G36*
X324303Y142673D02*
X321260D01*
X320870Y142596D01*
X320539Y142375D01*
X320318Y142044D01*
X320240Y141654D01*
Y138610D01*
X324303D01*
Y142673D01*
D02*
G37*
G36*
X328346D02*
X325303D01*
Y138610D01*
X329366D01*
Y141654D01*
X329288Y142044D01*
X329067Y142375D01*
X328737Y142596D01*
X328346Y142673D01*
D02*
G37*
G36*
X325303Y122627D02*
Y118610D01*
X329320D01*
X329229Y119296D01*
X328772Y120402D01*
X328044Y121351D01*
X327094Y122079D01*
X325989Y122537D01*
X325303Y122627D01*
D02*
G37*
G36*
Y80304D02*
Y76287D01*
X329320D01*
X329229Y76973D01*
X328772Y78079D01*
X328044Y79028D01*
X327094Y79756D01*
X325989Y80214D01*
X325303Y80304D01*
D02*
G37*
G36*
X328346Y90134D02*
X321260D01*
X320953Y90072D01*
X320692Y89898D01*
X320518Y89638D01*
X320457Y89331D01*
Y82244D01*
X320518Y81937D01*
X320692Y81676D01*
X320953Y81502D01*
X321260Y81441D01*
X328346D01*
X328654Y81502D01*
X328914Y81676D01*
X329088Y81937D01*
X329149Y82244D01*
Y89331D01*
X329088Y89638D01*
X328914Y89898D01*
X328654Y90072D01*
X328346Y90134D01*
D02*
G37*
G36*
X324303Y75287D02*
X320286D01*
X320377Y74601D01*
X320835Y73496D01*
X321563Y72547D01*
X322512Y71819D01*
X323617Y71361D01*
X324303Y71271D01*
Y75287D01*
D02*
G37*
G36*
Y80304D02*
X323617Y80214D01*
X322512Y79756D01*
X321563Y79028D01*
X320835Y78079D01*
X320377Y76973D01*
X320286Y76287D01*
X324303D01*
Y80304D01*
D02*
G37*
G36*
X118110Y186387D02*
X117252Y186274D01*
X116452Y185942D01*
X115766Y185415D01*
X115239Y184729D01*
X114907Y183929D01*
X114795Y183071D01*
X114907Y182213D01*
X115239Y181413D01*
X115766Y180726D01*
X116452Y180199D01*
X116798Y180056D01*
Y137355D01*
X84702Y105259D01*
X84417Y104833D01*
X84317Y104331D01*
Y93566D01*
X83972Y93423D01*
X83285Y92896D01*
X82758Y92209D01*
X82427Y91409D01*
X82314Y90551D01*
X82427Y89693D01*
X82758Y88893D01*
X83285Y88207D01*
X83972Y87680D01*
X84772Y87348D01*
X85630Y87235D01*
X86488Y87348D01*
X87288Y87680D01*
X87975Y88207D01*
X88502Y88893D01*
X88833Y89693D01*
X88946Y90551D01*
X88833Y91409D01*
X88502Y92209D01*
X87975Y92896D01*
X87288Y93423D01*
X86942Y93566D01*
Y103787D01*
X119038Y135883D01*
X119323Y136309D01*
X119423Y136811D01*
Y180056D01*
X119768Y180199D01*
X120455Y180726D01*
X120982Y181413D01*
X121313Y182213D01*
X121426Y183071D01*
X121313Y183929D01*
X120982Y184729D01*
X120455Y185415D01*
X119768Y185942D01*
X118968Y186274D01*
X118110Y186387D01*
D02*
G37*
G36*
X324303Y117610D02*
X320286D01*
X320377Y116924D01*
X320835Y115819D01*
X321563Y114870D01*
X322512Y114142D01*
X323617Y113684D01*
X324303Y113594D01*
Y117610D01*
D02*
G37*
G36*
Y122627D02*
X323617Y122537D01*
X322512Y122079D01*
X321563Y121351D01*
X320835Y120402D01*
X320377Y119296D01*
X320286Y118610D01*
X324303D01*
Y122627D01*
D02*
G37*
G36*
X324803Y112478D02*
X323673Y112329D01*
X322619Y111893D01*
X321714Y111199D01*
X321020Y110294D01*
X320659Y109423D01*
X129173D01*
X128671Y109323D01*
X128245Y109038D01*
X127877Y108670D01*
X127531Y108813D01*
X126673Y108926D01*
X125815Y108813D01*
X125015Y108482D01*
X124329Y107955D01*
X123802Y107268D01*
X123470Y106468D01*
X123357Y105610D01*
X123470Y104752D01*
X123802Y103952D01*
X124329Y103266D01*
X125015Y102739D01*
X125815Y102407D01*
X126673Y102295D01*
X127531Y102407D01*
X128331Y102739D01*
X129018Y103266D01*
X129431Y103804D01*
X130846D01*
X154214Y80436D01*
X154125Y79764D01*
X154238Y78906D01*
X154569Y78106D01*
X155096Y77419D01*
X155783Y76892D01*
X156583Y76561D01*
X157441Y76448D01*
X158299Y76561D01*
X158644Y76704D01*
X163048Y72300D01*
X163474Y72016D01*
X163976Y71916D01*
X178039D01*
X222859Y27096D01*
Y21063D01*
X222920Y20756D01*
X223094Y20495D01*
X223354Y20321D01*
X223661Y20260D01*
X229695D01*
X234151Y15804D01*
X234576Y15520D01*
X235079Y15420D01*
X276031D01*
X277746Y13704D01*
X277539Y13204D01*
X270905D01*
X270598Y13143D01*
X270338Y12969D01*
X270164Y12709D01*
X270103Y12402D01*
Y5315D01*
X270164Y5008D01*
X270338Y4747D01*
X270598Y4573D01*
X270905Y4512D01*
X277992D01*
X278299Y4573D01*
X278560Y4747D01*
X278734Y5008D01*
X278795Y5315D01*
Y11949D01*
X279295Y12156D01*
X280591Y10860D01*
X280230Y9989D01*
X280081Y8858D01*
X280230Y7728D01*
X280666Y6674D01*
X281360Y5770D01*
X282265Y5075D01*
X283318Y4639D01*
X284449Y4490D01*
X285579Y4639D01*
X286633Y5075D01*
X287538Y5770D01*
X288232Y6674D01*
X288668Y7728D01*
X288817Y8858D01*
X288668Y9989D01*
X288232Y11042D01*
X287538Y11947D01*
X286633Y12641D01*
X285579Y13078D01*
X284449Y13226D01*
X283318Y13078D01*
X282447Y12717D01*
X277503Y17660D01*
X277077Y17945D01*
X276575Y18045D01*
X235622D01*
X231551Y22117D01*
Y28150D01*
X231490Y28457D01*
X231316Y28717D01*
X231055Y28891D01*
X230748Y28952D01*
X224715D01*
X179511Y74156D01*
X179085Y74441D01*
X178583Y74541D01*
X164520D01*
X160501Y78560D01*
X160644Y78906D01*
X160757Y79764D01*
X160644Y80622D01*
X160312Y81422D01*
X159785Y82108D01*
X159099Y82635D01*
X158299Y82967D01*
X157441Y83079D01*
X156768Y82991D01*
X133424Y106336D01*
X133615Y106798D01*
X175600D01*
X175700Y106298D01*
X175507Y106218D01*
X174821Y105691D01*
X174294Y105004D01*
X173963Y104205D01*
X173850Y103347D01*
X173963Y102488D01*
X174294Y101689D01*
X174821Y101002D01*
X175507Y100475D01*
X175853Y100332D01*
Y90551D01*
X175953Y90049D01*
X176237Y89623D01*
X214623Y51237D01*
X215049Y50953D01*
X215551Y50853D01*
X277015D01*
X281995Y45874D01*
Y42530D01*
X281123Y42169D01*
X280218Y41475D01*
X279524Y40570D01*
X279088Y39516D01*
X278939Y38386D01*
X279088Y37255D01*
X279524Y36202D01*
X280218Y35297D01*
X281123Y34603D01*
X282176Y34167D01*
X283307Y34018D01*
X284438Y34167D01*
X285491Y34603D01*
X286396Y35297D01*
X287090Y36202D01*
X287526Y37255D01*
X287675Y38386D01*
X287526Y39516D01*
X287090Y40570D01*
X286396Y41475D01*
X285491Y42169D01*
X284620Y42530D01*
Y46417D01*
X284520Y46920D01*
X284235Y47346D01*
X278487Y53093D01*
X278170Y53306D01*
X278280Y53806D01*
X285874D01*
X291995Y47685D01*
Y42530D01*
X291123Y42169D01*
X290218Y41475D01*
X289524Y40570D01*
X289088Y39516D01*
X288939Y38386D01*
X289088Y37255D01*
X289524Y36202D01*
X290218Y35297D01*
X291123Y34603D01*
X292177Y34167D01*
X293307Y34018D01*
X294438Y34167D01*
X295491Y34603D01*
X296396Y35297D01*
X297090Y36202D01*
X297526Y37255D01*
X297675Y38386D01*
X297526Y39516D01*
X297090Y40570D01*
X296396Y41475D01*
X295491Y42169D01*
X294620Y42530D01*
Y48228D01*
X294520Y48731D01*
X294235Y49156D01*
X287346Y56046D01*
X286920Y56331D01*
X286417Y56431D01*
X217079D01*
X182415Y91095D01*
Y94426D01*
X182760Y94569D01*
X183447Y95096D01*
X183974Y95783D01*
X184305Y96583D01*
X184418Y97441D01*
X184305Y98299D01*
X183974Y99099D01*
X183447Y99786D01*
X182760Y100312D01*
X181960Y100644D01*
X181102Y100757D01*
X180244Y100644D01*
X179445Y100312D01*
X179392Y100272D01*
X178912Y100534D01*
X178913Y100544D01*
X179510Y101002D01*
X180037Y101689D01*
X180368Y102488D01*
X180481Y103347D01*
X180368Y104205D01*
X180037Y105004D01*
X179510Y105691D01*
X178823Y106218D01*
X178631Y106298D01*
X178730Y106798D01*
X320659D01*
X321020Y105926D01*
X321714Y105022D01*
X322619Y104327D01*
X323673Y103891D01*
X324803Y103742D01*
X325934Y103891D01*
X326987Y104327D01*
X327892Y105022D01*
X328586Y105926D01*
X329022Y106980D01*
X329171Y108110D01*
X329022Y109241D01*
X328586Y110294D01*
X327892Y111199D01*
X326987Y111893D01*
X325934Y112329D01*
X324803Y112478D01*
D02*
G37*
G36*
X329320Y117610D02*
X325303D01*
Y113594D01*
X325989Y113684D01*
X327094Y114142D01*
X328044Y114870D01*
X328772Y115819D01*
X329229Y116924D01*
X329320Y117610D01*
D02*
G37*
G36*
X98909Y151102D02*
X98496Y151048D01*
X97644Y150695D01*
X96913Y150134D01*
X96352Y149403D01*
X95999Y148551D01*
X95945Y148138D01*
X98909D01*
Y151102D01*
D02*
G37*
G36*
X307874Y177004D02*
X303650D01*
Y171760D01*
X308894D01*
Y175984D01*
X308816Y176374D01*
X308595Y176705D01*
X308264Y176926D01*
X307874Y177004D01*
D02*
G37*
G36*
X303150Y190599D02*
X301711Y190409D01*
X300370Y189854D01*
X299219Y188970D01*
X298335Y187819D01*
X297780Y186478D01*
X297590Y185039D01*
X297780Y183600D01*
X298335Y182260D01*
X299219Y181108D01*
X300370Y180225D01*
X301711Y179669D01*
X303150Y179480D01*
X304589Y179669D01*
X305929Y180225D01*
X307081Y181108D01*
X307964Y182260D01*
X308520Y183600D01*
X308709Y185039D01*
X308520Y186478D01*
X307964Y187819D01*
X307081Y188970D01*
X305929Y189854D01*
X304589Y190409D01*
X303150Y190599D01*
D02*
G37*
G36*
X308894Y170760D02*
X303650D01*
Y165516D01*
X307874D01*
X308264Y165594D01*
X308595Y165814D01*
X308816Y166145D01*
X308894Y166535D01*
Y170760D01*
D02*
G37*
G36*
X302650Y177004D02*
X298425D01*
X298035Y176926D01*
X297704Y176705D01*
X297483Y176374D01*
X297406Y175984D01*
Y171760D01*
X302650D01*
Y177004D01*
D02*
G37*
G36*
X265354Y197259D02*
X258268D01*
X257961Y197198D01*
X257700Y197024D01*
X257526Y196764D01*
X257465Y196457D01*
Y189370D01*
X257526Y189063D01*
X257700Y188802D01*
X257961Y188628D01*
X258268Y188567D01*
X265354D01*
X265662Y188628D01*
X265922Y188802D01*
X266096Y189063D01*
X266157Y189370D01*
Y196457D01*
X266096Y196764D01*
X265922Y197024D01*
X265662Y197198D01*
X265354Y197259D01*
D02*
G37*
G36*
X261811Y207281D02*
X260681Y207133D01*
X259627Y206696D01*
X258722Y206002D01*
X258028Y205097D01*
X257592Y204044D01*
X257443Y202913D01*
X257592Y201783D01*
X258028Y200729D01*
X258722Y199825D01*
X259627Y199130D01*
X260681Y198694D01*
X261811Y198545D01*
X262942Y198694D01*
X263995Y199130D01*
X264900Y199825D01*
X265594Y200729D01*
X266030Y201783D01*
X266179Y202913D01*
X266030Y204044D01*
X265594Y205097D01*
X264900Y206002D01*
X263995Y206696D01*
X262942Y207133D01*
X261811Y207281D01*
D02*
G37*
G36*
X302650Y212098D02*
X297442D01*
X297572Y211104D01*
X298149Y209712D01*
X299067Y208516D01*
X300263Y207598D01*
X301655Y207021D01*
X302650Y206891D01*
Y212098D01*
D02*
G37*
G36*
X303150Y204378D02*
X301711Y204189D01*
X300370Y203633D01*
X299219Y202750D01*
X298335Y201599D01*
X297780Y200258D01*
X297590Y198819D01*
X297780Y197380D01*
X298335Y196039D01*
X299219Y194888D01*
X300370Y194004D01*
X301711Y193449D01*
X303150Y193260D01*
X304589Y193449D01*
X305929Y194004D01*
X307081Y194888D01*
X307964Y196039D01*
X308520Y197380D01*
X308709Y198819D01*
X308520Y200258D01*
X307964Y201599D01*
X307081Y202750D01*
X305929Y203633D01*
X304589Y204189D01*
X303150Y204378D01*
D02*
G37*
G36*
X124016Y202135D02*
X123158Y202022D01*
X122358Y201690D01*
X121671Y201164D01*
X121144Y200477D01*
X120813Y199677D01*
X120700Y198819D01*
X120813Y197961D01*
X121144Y197161D01*
X121671Y196474D01*
X122358Y195947D01*
X122930Y195710D01*
X122831Y195210D01*
X121125D01*
X120982Y195555D01*
X120455Y196242D01*
X119768Y196769D01*
X118968Y197100D01*
X118110Y197213D01*
X117252Y197100D01*
X116452Y196769D01*
X115766Y196242D01*
X115239Y195555D01*
X114907Y194756D01*
X114795Y193898D01*
X114907Y193040D01*
X115239Y192240D01*
X115766Y191553D01*
X116452Y191026D01*
X117252Y190695D01*
X118110Y190582D01*
X118968Y190695D01*
X119768Y191026D01*
X120455Y191553D01*
X120982Y192240D01*
X121125Y192585D01*
X123472D01*
X124310Y191747D01*
X124089Y191298D01*
X124016Y191308D01*
X123158Y191195D01*
X122358Y190864D01*
X121671Y190337D01*
X121144Y189650D01*
X120813Y188850D01*
X120700Y187992D01*
X120813Y187134D01*
X121144Y186334D01*
X121671Y185647D01*
X122358Y185121D01*
X122703Y184978D01*
Y135386D01*
X96072Y108755D01*
X95787Y108329D01*
X95687Y107827D01*
Y64272D01*
X95787Y63769D01*
X96072Y63344D01*
X97707Y61709D01*
X96577Y60579D01*
X96498Y60563D01*
X96072Y60278D01*
X95787Y59853D01*
X95687Y59350D01*
Y55486D01*
X95214Y55325D01*
X95057Y55530D01*
X94152Y56224D01*
X93099Y56660D01*
X91969Y56809D01*
X90838Y56660D01*
X89784Y56224D01*
X88880Y55530D01*
X88186Y54625D01*
X87749Y53571D01*
X87600Y52441D01*
X87749Y51310D01*
X88186Y50257D01*
X88880Y49352D01*
X89784Y48658D01*
X90838Y48222D01*
X91969Y48073D01*
X93099Y48222D01*
X94152Y48658D01*
X95057Y49352D01*
X95214Y49556D01*
X95687Y49396D01*
Y47409D01*
X95787Y46907D01*
X96072Y46481D01*
X98110Y44443D01*
X97749Y43571D01*
X97600Y42441D01*
X97749Y41310D01*
X98186Y40257D01*
X98880Y39352D01*
X99784Y38658D01*
X100838Y38222D01*
X101969Y38073D01*
X103099Y38222D01*
X104153Y38658D01*
X105057Y39352D01*
X105751Y40257D01*
X106188Y41310D01*
X106337Y42441D01*
X106188Y43571D01*
X105751Y44625D01*
X105057Y45530D01*
X104153Y46224D01*
X103099Y46660D01*
X101969Y46809D01*
X100838Y46660D01*
X99967Y46299D01*
X98313Y47953D01*
Y49314D01*
X98786Y49474D01*
X98880Y49352D01*
X99784Y48658D01*
X100838Y48222D01*
X101969Y48073D01*
X103099Y48222D01*
X104153Y48658D01*
X105057Y49352D01*
X105751Y50257D01*
X106188Y51310D01*
X106337Y52441D01*
X106188Y53571D01*
X105751Y54625D01*
X105057Y55530D01*
X104153Y56224D01*
X103099Y56660D01*
X101969Y56809D01*
X100838Y56660D01*
X99784Y56224D01*
X98880Y55530D01*
X98786Y55408D01*
X98313Y55568D01*
Y58602D01*
X100107Y60396D01*
X104155D01*
X104298Y60051D01*
X104825Y59364D01*
X105511Y58837D01*
X106311Y58506D01*
X107169Y58393D01*
X108028Y58506D01*
X108827Y58837D01*
X109514Y59364D01*
X110041Y60051D01*
X110156Y60329D01*
X110656Y60229D01*
Y56787D01*
X108425D01*
X108118Y56726D01*
X107858Y56552D01*
X107684Y56292D01*
X107622Y55984D01*
Y48898D01*
X107684Y48590D01*
X107858Y48330D01*
X108118Y48156D01*
X108425Y48095D01*
X115512D01*
X115819Y48156D01*
X116079Y48330D01*
X116253Y48590D01*
X116315Y48898D01*
Y55984D01*
X116253Y56292D01*
X116079Y56552D01*
X115819Y56726D01*
X115512Y56787D01*
X113281D01*
Y105519D01*
X131834Y124072D01*
X132118Y124498D01*
X132218Y125000D01*
Y187008D01*
X132118Y187510D01*
X131834Y187936D01*
X124944Y194826D01*
X124575Y195072D01*
X124566Y195298D01*
X124639Y195585D01*
X124874Y195616D01*
X125219Y195759D01*
X134514Y186464D01*
Y122591D01*
X118166Y106243D01*
X117882Y105817D01*
X117782Y105315D01*
Y59055D01*
X117882Y58553D01*
X118166Y58127D01*
X121940Y54353D01*
X121797Y54008D01*
X121684Y53150D01*
X121797Y52291D01*
X122128Y51492D01*
X122655Y50805D01*
X123342Y50278D01*
X124142Y49947D01*
X125000Y49834D01*
X125858Y49947D01*
X126658Y50278D01*
X127345Y50805D01*
X127872Y51492D01*
X128203Y52291D01*
X128316Y53150D01*
X128203Y54008D01*
X127872Y54808D01*
X127345Y55494D01*
X126658Y56021D01*
X125858Y56352D01*
X125000Y56465D01*
X124142Y56352D01*
X123797Y56209D01*
X120407Y59599D01*
Y104771D01*
X136755Y121119D01*
X137039Y121545D01*
X137139Y122047D01*
Y187008D01*
X137039Y187510D01*
X136755Y187936D01*
X127076Y197616D01*
X127218Y197961D01*
X127331Y198819D01*
X127218Y199677D01*
X126887Y200477D01*
X126360Y201164D01*
X125674Y201690D01*
X124874Y202022D01*
X124016Y202135D01*
D02*
G37*
G36*
X302650Y170760D02*
X297406D01*
Y166535D01*
X297483Y166145D01*
X297704Y165814D01*
X298035Y165594D01*
X298425Y165516D01*
X302650D01*
Y170760D01*
D02*
G37*
G36*
X162913Y161902D02*
X159949D01*
Y158937D01*
X160363Y158992D01*
X161214Y159344D01*
X161945Y159905D01*
X162506Y160636D01*
X162859Y161488D01*
X162913Y161902D01*
D02*
G37*
G36*
X182571D02*
X179606D01*
X179661Y161488D01*
X180014Y160636D01*
X180575Y159905D01*
X181306Y159344D01*
X182157Y158992D01*
X182571Y158937D01*
Y161902D01*
D02*
G37*
G36*
X99910Y151102D02*
Y148138D01*
X102874D01*
X102819Y148551D01*
X102467Y149403D01*
X101906Y150134D01*
X101174Y150695D01*
X100323Y151048D01*
X99910Y151102D01*
D02*
G37*
G36*
X158949Y161902D02*
X155984D01*
X156039Y161488D01*
X156392Y160636D01*
X156953Y159905D01*
X157684Y159344D01*
X158535Y158992D01*
X158949Y158937D01*
Y161902D01*
D02*
G37*
G36*
X186535D02*
X183571D01*
Y158937D01*
X183984Y158992D01*
X184836Y159344D01*
X185567Y159905D01*
X186128Y160636D01*
X186481Y161488D01*
X186535Y161902D01*
D02*
G37*
G36*
X182571Y165866D02*
X182157Y165812D01*
X181306Y165459D01*
X180575Y164898D01*
X180014Y164167D01*
X179661Y163315D01*
X179606Y162902D01*
X182571D01*
Y165866D01*
D02*
G37*
G36*
X183571D02*
Y162902D01*
X186535D01*
X186481Y163315D01*
X186128Y164167D01*
X185567Y164898D01*
X184836Y165459D01*
X183984Y165812D01*
X183571Y165866D01*
D02*
G37*
G36*
X158949D02*
X158535Y165812D01*
X157684Y165459D01*
X156953Y164898D01*
X156392Y164167D01*
X156039Y163315D01*
X155984Y162902D01*
X158949D01*
Y165866D01*
D02*
G37*
G36*
X159949D02*
Y162902D01*
X162913D01*
X162859Y163315D01*
X162506Y164167D01*
X161945Y164898D01*
X161214Y165459D01*
X160363Y165812D01*
X159949Y165866D01*
D02*
G37*
G36*
X329320Y75287D02*
X325303D01*
Y71271D01*
X325989Y71361D01*
X327094Y71819D01*
X328044Y72547D01*
X328772Y73496D01*
X329229Y74601D01*
X329320Y75287D01*
D02*
G37*
G36*
X237705Y13375D02*
Y9358D01*
X241721D01*
X241631Y10044D01*
X241173Y11150D01*
X240445Y12099D01*
X239496Y12827D01*
X238391Y13285D01*
X237705Y13375D01*
D02*
G37*
G36*
X293949Y13375D02*
X293263Y13285D01*
X292158Y12827D01*
X291209Y12099D01*
X290480Y11150D01*
X290022Y10044D01*
X289932Y9358D01*
X293949D01*
Y13375D01*
D02*
G37*
G36*
X230748Y13204D02*
X223661D01*
X223354Y13143D01*
X223094Y12969D01*
X222920Y12709D01*
X222859Y12402D01*
Y5315D01*
X222920Y5008D01*
X223094Y4747D01*
X223354Y4573D01*
X223661Y4512D01*
X230748D01*
X231055Y4573D01*
X231316Y4747D01*
X231490Y5008D01*
X231551Y5315D01*
Y12402D01*
X231490Y12709D01*
X231316Y12969D01*
X231055Y13143D01*
X230748Y13204D01*
D02*
G37*
G36*
X236705Y13375D02*
X236019Y13285D01*
X234913Y12827D01*
X233964Y12099D01*
X233236Y11150D01*
X232778Y10044D01*
X232688Y9358D01*
X236705D01*
Y13375D01*
D02*
G37*
G36*
X294949Y13375D02*
Y9358D01*
X298966D01*
X298875Y10044D01*
X298417Y11150D01*
X297689Y12099D01*
X296740Y12827D01*
X295635Y13285D01*
X294949Y13375D01*
D02*
G37*
G36*
X15248Y28559D02*
X13738Y28440D01*
X11777Y27970D01*
X9914Y27198D01*
X8195Y26144D01*
X6661Y24835D01*
X5352Y23301D01*
X4298Y21582D01*
X3526Y19719D01*
X3056Y17758D01*
X2937Y16248D01*
X15248D01*
Y28559D01*
D02*
G37*
G36*
X16248D02*
Y16248D01*
X28559D01*
X28440Y17758D01*
X27970Y19719D01*
X27198Y21582D01*
X26144Y23301D01*
X24835Y24835D01*
X23301Y26144D01*
X21582Y27198D01*
X19719Y27970D01*
X17758Y28440D01*
X16248Y28559D01*
D02*
G37*
G36*
X159354Y25281D02*
X158121Y25119D01*
X156972Y24643D01*
X155985Y23885D01*
X155228Y22898D01*
X154752Y21749D01*
X154589Y20516D01*
X154752Y19282D01*
X155228Y18133D01*
X155985Y17146D01*
X156972Y16389D01*
X158121Y15913D01*
X159354Y15751D01*
X160588Y15913D01*
X161737Y16389D01*
X162724Y17146D01*
X163481Y18133D01*
X163957Y19282D01*
X164120Y20516D01*
X163957Y21749D01*
X163481Y22898D01*
X162724Y23885D01*
X161737Y24643D01*
X160588Y25119D01*
X159354Y25281D01*
D02*
G37*
G36*
X178567D02*
X177334Y25119D01*
X176184Y24643D01*
X175197Y23885D01*
X174440Y22898D01*
X173964Y21749D01*
X173802Y20516D01*
X173964Y19282D01*
X174440Y18133D01*
X175197Y17146D01*
X176184Y16389D01*
X177334Y15913D01*
X178567Y15751D01*
X179800Y15913D01*
X180949Y16389D01*
X181936Y17146D01*
X182694Y18133D01*
X183170Y19282D01*
X183332Y20516D01*
X183170Y21749D01*
X182694Y22898D01*
X181936Y23885D01*
X180949Y24643D01*
X179800Y25119D01*
X178567Y25281D01*
D02*
G37*
G36*
X257205Y13226D02*
X256074Y13078D01*
X255021Y12641D01*
X254116Y11947D01*
X253422Y11042D01*
X252986Y9989D01*
X252837Y8858D01*
X252986Y7728D01*
X253422Y6674D01*
X254116Y5770D01*
X255021Y5075D01*
X256074Y4639D01*
X257205Y4490D01*
X258335Y4639D01*
X259389Y5075D01*
X260293Y5770D01*
X260988Y6674D01*
X261424Y7728D01*
X261573Y8858D01*
X261424Y9989D01*
X260988Y11042D01*
X260293Y11947D01*
X259389Y12641D01*
X258335Y13078D01*
X257205Y13226D01*
D02*
G37*
G36*
X318398Y15248D02*
X306086D01*
X306205Y13738D01*
X306676Y11777D01*
X307448Y9914D01*
X308501Y8195D01*
X309811Y6661D01*
X311344Y5352D01*
X313064Y4298D01*
X314927Y3526D01*
X316887Y3056D01*
X318398Y2937D01*
Y15248D01*
D02*
G37*
G36*
X331709D02*
X319398D01*
Y2937D01*
X320908Y3056D01*
X322869Y3526D01*
X324732Y4298D01*
X326451Y5352D01*
X327984Y6661D01*
X329294Y8195D01*
X330348Y9914D01*
X331119Y11777D01*
X331590Y13738D01*
X331709Y15248D01*
D02*
G37*
G36*
X15248D02*
X2937D01*
X3056Y13738D01*
X3526Y11777D01*
X4298Y9914D01*
X5352Y8195D01*
X6661Y6661D01*
X8195Y5352D01*
X9914Y4298D01*
X11777Y3526D01*
X13738Y3056D01*
X15248Y2937D01*
Y15248D01*
D02*
G37*
G36*
X28559D02*
X16248D01*
Y2937D01*
X17758Y3056D01*
X19719Y3526D01*
X21582Y4298D01*
X23301Y5352D01*
X24835Y6661D01*
X26144Y8195D01*
X27198Y9914D01*
X27970Y11777D01*
X28440Y13738D01*
X28559Y15248D01*
D02*
G37*
G36*
X241721Y8358D02*
X237705D01*
Y4342D01*
X238391Y4432D01*
X239496Y4890D01*
X240445Y5618D01*
X241173Y6567D01*
X241631Y7672D01*
X241721Y8358D01*
D02*
G37*
G36*
X298966Y8358D02*
X294949D01*
Y4342D01*
X295635Y4432D01*
X296740Y4890D01*
X297689Y5618D01*
X298417Y6567D01*
X298875Y7672D01*
X298966Y8358D01*
D02*
G37*
G36*
X247205Y13226D02*
X246074Y13078D01*
X245021Y12641D01*
X244116Y11947D01*
X243422Y11042D01*
X242986Y9989D01*
X242837Y8858D01*
X242986Y7728D01*
X243422Y6674D01*
X244116Y5770D01*
X245021Y5075D01*
X246074Y4639D01*
X247205Y4490D01*
X248335Y4639D01*
X249389Y5075D01*
X250293Y5770D01*
X250988Y6674D01*
X251424Y7728D01*
X251573Y8858D01*
X251424Y9989D01*
X250988Y11042D01*
X250293Y11947D01*
X249389Y12641D01*
X248335Y13078D01*
X247205Y13226D01*
D02*
G37*
G36*
X236705Y8358D02*
X232688D01*
X232778Y7672D01*
X233236Y6567D01*
X233964Y5618D01*
X234913Y4890D01*
X236019Y4432D01*
X236705Y4342D01*
Y8358D01*
D02*
G37*
G36*
X293949Y8358D02*
X289932D01*
X290022Y7672D01*
X290480Y6567D01*
X291209Y5618D01*
X292158Y4890D01*
X293263Y4432D01*
X293949Y4342D01*
Y8358D01*
D02*
G37*
G36*
X318398Y28559D02*
X316887Y28440D01*
X314927Y27970D01*
X313064Y27198D01*
X311344Y26144D01*
X309811Y24835D01*
X308501Y23301D01*
X307448Y21582D01*
X306676Y19719D01*
X306205Y17758D01*
X306086Y16248D01*
X318398D01*
Y28559D01*
D02*
G37*
G36*
X91469Y41941D02*
X87452D01*
X87542Y41255D01*
X88000Y40150D01*
X88728Y39201D01*
X89677Y38472D01*
X90782Y38015D01*
X91469Y37924D01*
Y41941D01*
D02*
G37*
G36*
X111969Y46809D02*
X110838Y46660D01*
X109784Y46224D01*
X108880Y45530D01*
X108186Y44625D01*
X107749Y43571D01*
X107600Y42441D01*
X107749Y41310D01*
X108186Y40257D01*
X108880Y39352D01*
X109784Y38658D01*
X110838Y38222D01*
X111969Y38073D01*
X113099Y38222D01*
X114153Y38658D01*
X115057Y39352D01*
X115751Y40257D01*
X116188Y41310D01*
X116337Y42441D01*
X116188Y43571D01*
X115751Y44625D01*
X115057Y45530D01*
X114153Y46224D01*
X113099Y46660D01*
X111969Y46809D01*
D02*
G37*
G36*
X276850Y42732D02*
X269764D01*
X269457Y42671D01*
X269196Y42497D01*
X269022Y42236D01*
X268961Y41929D01*
Y34843D01*
X269022Y34535D01*
X269196Y34275D01*
X269457Y34101D01*
X269764Y34040D01*
X276850D01*
X277158Y34101D01*
X277418Y34275D01*
X277592Y34535D01*
X277653Y34843D01*
Y41929D01*
X277592Y42236D01*
X277418Y42497D01*
X277158Y42671D01*
X276850Y42732D01*
D02*
G37*
G36*
X96485Y41941D02*
X92469D01*
Y37924D01*
X93155Y38015D01*
X94260Y38472D01*
X95209Y39201D01*
X95937Y40150D01*
X96395Y41255D01*
X96485Y41941D01*
D02*
G37*
G36*
X312807Y42902D02*
X312121Y42812D01*
X311016Y42354D01*
X310067Y41626D01*
X309338Y40677D01*
X308881Y39572D01*
X308790Y38886D01*
X312807D01*
Y42902D01*
D02*
G37*
G36*
X91469Y46958D02*
X90782Y46867D01*
X89677Y46409D01*
X88728Y45681D01*
X88000Y44732D01*
X87542Y43627D01*
X87452Y42941D01*
X91469D01*
Y46958D01*
D02*
G37*
G36*
X92469Y46958D02*
Y42941D01*
X96485D01*
X96395Y43627D01*
X95937Y44732D01*
X95209Y45681D01*
X94260Y46409D01*
X93155Y46867D01*
X92469Y46958D01*
D02*
G37*
G36*
X313807Y42902D02*
Y38886D01*
X317824D01*
X317733Y39572D01*
X317276Y40677D01*
X316547Y41626D01*
X315598Y42354D01*
X314493Y42812D01*
X313807Y42902D01*
D02*
G37*
G36*
X75787Y55481D02*
X74929Y55368D01*
X74129Y55037D01*
X73443Y54510D01*
X72916Y53823D01*
X72585Y53023D01*
X72472Y52165D01*
X72585Y51307D01*
X72916Y50507D01*
X73443Y49821D01*
X74129Y49294D01*
X74475Y49151D01*
Y35878D01*
X74575Y35376D01*
X74859Y34950D01*
X82308Y27501D01*
X82734Y27216D01*
X83236Y27117D01*
X121933D01*
X122435Y27216D01*
X122861Y27501D01*
X137355Y41995D01*
X138718D01*
X138861Y41649D01*
X139388Y40962D01*
X140074Y40435D01*
X140874Y40104D01*
X141732Y39991D01*
X142590Y40104D01*
X143390Y40435D01*
X144077Y40962D01*
X144604Y41649D01*
X144935Y42449D01*
X145048Y43307D01*
X144935Y44165D01*
X144604Y44965D01*
X144077Y45652D01*
X143390Y46179D01*
X142590Y46510D01*
X141732Y46623D01*
X140874Y46510D01*
X140074Y46179D01*
X139388Y45652D01*
X138861Y44965D01*
X138718Y44620D01*
X136811D01*
X136309Y44520D01*
X135883Y44235D01*
X121389Y29742D01*
X83780D01*
X77100Y36422D01*
Y49151D01*
X77445Y49294D01*
X78132Y49821D01*
X78659Y50507D01*
X78990Y51307D01*
X79103Y52165D01*
X78990Y53023D01*
X78659Y53823D01*
X78132Y54510D01*
X77445Y55037D01*
X76646Y55368D01*
X75787Y55481D01*
D02*
G37*
G36*
X303307Y42754D02*
X302176Y42605D01*
X301123Y42169D01*
X300218Y41475D01*
X299524Y40570D01*
X299088Y39516D01*
X298939Y38386D01*
X299088Y37255D01*
X299524Y36202D01*
X300218Y35297D01*
X301123Y34603D01*
X302176Y34167D01*
X303307Y34018D01*
X304438Y34167D01*
X305491Y34603D01*
X306396Y35297D01*
X307090Y36202D01*
X307526Y37255D01*
X307675Y38386D01*
X307526Y39516D01*
X307090Y40570D01*
X306396Y41475D01*
X305491Y42169D01*
X304438Y42605D01*
X303307Y42754D01*
D02*
G37*
G36*
X236705Y24106D02*
X232688D01*
X232778Y23420D01*
X233236Y22315D01*
X233964Y21366D01*
X234913Y20638D01*
X236019Y20180D01*
X236705Y20090D01*
Y24106D01*
D02*
G37*
G36*
X247205Y28974D02*
X246074Y28826D01*
X245021Y28389D01*
X244116Y27695D01*
X243422Y26790D01*
X242986Y25737D01*
X242837Y24606D01*
X242986Y23476D01*
X243422Y22422D01*
X244116Y21518D01*
X245021Y20823D01*
X246074Y20387D01*
X247205Y20238D01*
X248335Y20387D01*
X249389Y20823D01*
X250293Y21518D01*
X250988Y22422D01*
X251424Y23476D01*
X251573Y24606D01*
X251424Y25737D01*
X250988Y26790D01*
X250293Y27695D01*
X249389Y28389D01*
X248335Y28826D01*
X247205Y28974D01*
D02*
G37*
G36*
X319398Y28559D02*
Y16248D01*
X331709D01*
X331590Y17758D01*
X331119Y19719D01*
X330348Y21582D01*
X329294Y23301D01*
X327984Y24835D01*
X326451Y26144D01*
X324732Y27198D01*
X322869Y27970D01*
X320908Y28440D01*
X319398Y28559D01*
D02*
G37*
G36*
X241721Y24106D02*
X237705D01*
Y20090D01*
X238391Y20180D01*
X239496Y20638D01*
X240445Y21366D01*
X241173Y22315D01*
X241631Y23420D01*
X241721Y24106D01*
D02*
G37*
G36*
X257205Y28974D02*
X256074Y28826D01*
X255021Y28389D01*
X254116Y27695D01*
X253422Y26790D01*
X252986Y25737D01*
X252837Y24606D01*
X252986Y23476D01*
X253422Y22422D01*
X254116Y21518D01*
X255021Y20823D01*
X256074Y20387D01*
X257205Y20238D01*
X258335Y20387D01*
X259389Y20823D01*
X260293Y21518D01*
X260988Y22422D01*
X261424Y23476D01*
X261573Y24606D01*
X261424Y25737D01*
X260988Y26790D01*
X260293Y27695D01*
X259389Y28389D01*
X258335Y28826D01*
X257205Y28974D01*
D02*
G37*
G36*
X312807Y37886D02*
X308790D01*
X308881Y37200D01*
X309338Y36095D01*
X310067Y35146D01*
X311016Y34417D01*
X312121Y33959D01*
X312807Y33869D01*
Y37886D01*
D02*
G37*
G36*
X317824D02*
X313807D01*
Y33869D01*
X314493Y33959D01*
X315598Y34417D01*
X316547Y35146D01*
X317276Y36095D01*
X317733Y37200D01*
X317824Y37886D01*
D02*
G37*
G36*
X236705Y29123D02*
X236019Y29033D01*
X234913Y28575D01*
X233964Y27847D01*
X233236Y26897D01*
X232778Y25792D01*
X232688Y25106D01*
X236705D01*
Y29123D01*
D02*
G37*
G36*
X237705Y29123D02*
Y25106D01*
X241721D01*
X241631Y25792D01*
X241173Y26897D01*
X240445Y27847D01*
X239496Y28575D01*
X238391Y29033D01*
X237705Y29123D01*
D02*
G37*
G36*
X184461Y309098D02*
X183944Y309030D01*
X182997Y308637D01*
X182184Y308013D01*
X181560Y307200D01*
X181167Y306253D01*
X181090Y305665D01*
X180586D01*
X180516Y306197D01*
X180145Y307093D01*
X179554Y307862D01*
X178786Y308452D01*
X177890Y308823D01*
X176929Y308949D01*
X175968Y308823D01*
X175073Y308452D01*
X174304Y307862D01*
X173714Y307093D01*
X173343Y306197D01*
X173216Y305236D01*
X173343Y304275D01*
X173714Y303380D01*
X174304Y302611D01*
X175073Y302021D01*
X175968Y301650D01*
X176929Y301523D01*
X177890Y301650D01*
X178534Y301917D01*
X178786Y301480D01*
X178168Y301005D01*
X177544Y300192D01*
X177151Y299245D01*
X177074Y298657D01*
X176570D01*
X176500Y299189D01*
X176129Y300085D01*
X175539Y300854D01*
X174770Y301444D01*
X173874Y301815D01*
X172913Y301941D01*
X171952Y301815D01*
X171057Y301444D01*
X170288Y300854D01*
X169698Y300085D01*
X169327Y299189D01*
X169201Y298228D01*
X169327Y297267D01*
X169698Y296372D01*
X170288Y295603D01*
X171057Y295013D01*
X171952Y294642D01*
X172913Y294515D01*
X173874Y294642D01*
X174770Y295013D01*
X175539Y295603D01*
X176129Y296372D01*
X176500Y297267D01*
X176570Y297799D01*
X177074D01*
X177151Y297212D01*
X177544Y296265D01*
X178168Y295451D01*
X178981Y294827D01*
X179928Y294435D01*
X180445Y294367D01*
Y298228D01*
X181445D01*
Y294367D01*
X181961Y294435D01*
X182908Y294827D01*
X183722Y295451D01*
X184346Y296265D01*
X184701Y297122D01*
X184957Y297170D01*
X184964D01*
X185220Y297122D01*
X185575Y296265D01*
X186199Y295451D01*
X187013Y294827D01*
X187960Y294435D01*
X188476Y294367D01*
Y298228D01*
Y302090D01*
X187995Y302027D01*
X187958Y302053D01*
X187781Y302516D01*
X188362Y303273D01*
X188754Y304220D01*
X188822Y304736D01*
X184961D01*
Y305236D01*
X184461D01*
Y309098D01*
D02*
G37*
G36*
X260248D02*
X259732Y309030D01*
X258784Y308637D01*
X257971Y308013D01*
X257347Y307200D01*
X256955Y306253D01*
X256877Y305665D01*
X256373D01*
X256303Y306197D01*
X255932Y307093D01*
X255342Y307862D01*
X254573Y308452D01*
X253678Y308823D01*
X252716Y308949D01*
X251756Y308823D01*
X250860Y308452D01*
X250091Y307862D01*
X249501Y307093D01*
X249130Y306197D01*
X249004Y305236D01*
X249130Y304275D01*
X249501Y303380D01*
X250091Y302611D01*
X250860Y302021D01*
X251756Y301650D01*
X252716Y301523D01*
X253678Y301650D01*
X254322Y301917D01*
X254574Y301480D01*
X253955Y301005D01*
X253331Y300192D01*
X252939Y299245D01*
X252861Y298657D01*
X252357D01*
X252287Y299189D01*
X251916Y300085D01*
X251326Y300854D01*
X250557Y301444D01*
X249662Y301815D01*
X248701Y301941D01*
X247740Y301815D01*
X246844Y301444D01*
X246075Y300854D01*
X245485Y300085D01*
X245114Y299189D01*
X244988Y298228D01*
X245114Y297267D01*
X245485Y296372D01*
X246075Y295603D01*
X246844Y295013D01*
X247388Y294788D01*
Y289461D01*
X226169Y268242D01*
X191794D01*
X191651Y268587D01*
X191124Y269274D01*
X190437Y269801D01*
X189638Y270132D01*
X188779Y270245D01*
X187921Y270132D01*
X187122Y269801D01*
X186435Y269274D01*
X185908Y268587D01*
X185577Y267787D01*
X185464Y266929D01*
X185577Y266071D01*
X185908Y265271D01*
X186435Y264584D01*
X187122Y264058D01*
X187921Y263726D01*
X188779Y263613D01*
X189638Y263726D01*
X190437Y264058D01*
X191124Y264584D01*
X191651Y265271D01*
X191794Y265616D01*
X226713D01*
X227215Y265716D01*
X227641Y266001D01*
X249629Y287989D01*
X249914Y288415D01*
X250013Y288917D01*
Y294788D01*
X250557Y295013D01*
X251326Y295603D01*
X251916Y296372D01*
X252287Y297267D01*
X252357Y297799D01*
X252861D01*
X252939Y297212D01*
X253331Y296265D01*
X253955Y295451D01*
X254769Y294827D01*
X255716Y294435D01*
X256232Y294367D01*
Y298228D01*
X257232D01*
Y294367D01*
X257749Y294435D01*
X258696Y294827D01*
X259509Y295451D01*
X260133Y296265D01*
X260489Y297122D01*
X260745Y297170D01*
X260752D01*
X261007Y297122D01*
X261363Y296265D01*
X261987Y295451D01*
X262800Y294827D01*
X263747Y294435D01*
X264264Y294367D01*
Y298228D01*
Y302090D01*
X263782Y302027D01*
X263745Y302053D01*
X263568Y302516D01*
X264149Y303273D01*
X264542Y304220D01*
X264610Y304736D01*
X260748D01*
Y305236D01*
X260248D01*
Y309098D01*
D02*
G37*
G36*
X50368Y310352D02*
Y305144D01*
X55576D01*
X55445Y306138D01*
X54869Y307531D01*
X53951Y308727D01*
X52755Y309644D01*
X51363Y310221D01*
X50368Y310352D01*
D02*
G37*
G36*
X225748Y325958D02*
X224071Y325826D01*
X222435Y325433D01*
X220880Y324790D01*
X219446Y323910D01*
X218166Y322818D01*
X217074Y321538D01*
X216195Y320104D01*
X215551Y318549D01*
X215158Y316914D01*
X215026Y315236D01*
X215158Y313559D01*
X215551Y311923D01*
X216195Y310368D01*
X217074Y308934D01*
X217963Y307892D01*
X217759Y307361D01*
X217250Y307294D01*
X215861Y306719D01*
X214669Y305804D01*
X213754Y304611D01*
X213178Y303223D01*
X213106Y302676D01*
X212602D01*
X212530Y303223D01*
X211955Y304611D01*
X211040Y305804D01*
X209847Y306719D01*
X208459Y307294D01*
X207949Y307361D01*
X207745Y307892D01*
X208635Y308934D01*
X209514Y310368D01*
X210158Y311923D01*
X210551Y313559D01*
X210683Y315236D01*
X210551Y316914D01*
X210158Y318549D01*
X209514Y320104D01*
X208635Y321538D01*
X207542Y322818D01*
X206263Y323910D01*
X204828Y324790D01*
X203274Y325433D01*
X201638Y325826D01*
X199961Y325958D01*
X198283Y325826D01*
X196647Y325433D01*
X195093Y324790D01*
X193658Y323910D01*
X192379Y322818D01*
X191286Y321538D01*
X190407Y320104D01*
X189763Y318549D01*
X189371Y316914D01*
X189239Y315236D01*
X189371Y313559D01*
X189763Y311923D01*
X190407Y310368D01*
X191286Y308934D01*
X192379Y307655D01*
X193658Y306562D01*
X195093Y305683D01*
X196647Y305039D01*
X198283Y304646D01*
X199961Y304514D01*
X201449Y304631D01*
X201760Y304287D01*
X201800Y304171D01*
X201407Y303223D01*
X201211Y301732D01*
X201407Y300242D01*
X201982Y298853D01*
X202897Y297661D01*
X204089Y296746D01*
X205478Y296171D01*
X206968Y295974D01*
X208459Y296171D01*
X209847Y296746D01*
X211040Y297661D01*
X211955Y298853D01*
X212530Y300242D01*
X212602Y300788D01*
X213106D01*
X213178Y300242D01*
X213754Y298853D01*
X214669Y297661D01*
X215861Y296746D01*
X217250Y296171D01*
X218740Y295974D01*
X220230Y296171D01*
X221619Y296746D01*
X222812Y297661D01*
X223727Y298853D01*
X224302Y300242D01*
X224498Y301732D01*
X224302Y303223D01*
X223909Y304171D01*
X223949Y304287D01*
X224259Y304631D01*
X225748Y304514D01*
X227425Y304646D01*
X229061Y305039D01*
X230616Y305683D01*
X232050Y306562D01*
X233067Y307430D01*
X233438Y307093D01*
X233067Y306197D01*
X232941Y305236D01*
X233067Y304275D01*
X233438Y303380D01*
X234028Y302611D01*
X234797Y302021D01*
X235693Y301650D01*
X236653Y301523D01*
X237614Y301650D01*
X238510Y302021D01*
X239279Y302611D01*
X239869Y303380D01*
X240240Y304275D01*
X240366Y305236D01*
X240240Y306197D01*
X239869Y307093D01*
X239279Y307862D01*
X238510Y308452D01*
X237614Y308823D01*
X236653Y308949D01*
X235693Y308823D01*
X234797Y308452D01*
X234422Y308164D01*
X234076Y308529D01*
X234422Y308934D01*
X235301Y310368D01*
X235945Y311923D01*
X236338Y313559D01*
X236470Y315236D01*
X236338Y316914D01*
X235945Y318549D01*
X235301Y320104D01*
X234422Y321538D01*
X233330Y322818D01*
X232050Y323910D01*
X230616Y324790D01*
X229061Y325433D01*
X227425Y325826D01*
X225748Y325958D01*
D02*
G37*
G36*
X49368Y310352D02*
X48374Y310221D01*
X46981Y309644D01*
X45786Y308727D01*
X44868Y307531D01*
X44291Y306138D01*
X44160Y305144D01*
X49368D01*
Y310352D01*
D02*
G37*
G36*
X28559Y318398D02*
X16248D01*
Y306086D01*
X17758Y306205D01*
X19719Y306676D01*
X21582Y307448D01*
X23301Y308501D01*
X24835Y309811D01*
X26144Y311344D01*
X27198Y313064D01*
X27970Y314927D01*
X28440Y316887D01*
X28559Y318398D01*
D02*
G37*
G36*
X318398D02*
X306086D01*
X306205Y316887D01*
X306676Y314927D01*
X307448Y313064D01*
X308501Y311344D01*
X309811Y309811D01*
X311344Y308501D01*
X313064Y307448D01*
X314927Y306676D01*
X316887Y306205D01*
X318398Y306086D01*
Y318398D01*
D02*
G37*
G36*
X15248D02*
X2937D01*
X3056Y316887D01*
X3526Y314927D01*
X4298Y313064D01*
X5352Y311344D01*
X6661Y309811D01*
X8195Y308501D01*
X9914Y307448D01*
X11777Y306676D01*
X13738Y306205D01*
X15248Y306086D01*
Y318398D01*
D02*
G37*
G36*
X261248Y309098D02*
Y305736D01*
X264610D01*
X264542Y306253D01*
X264149Y307200D01*
X263525Y308013D01*
X262712Y308637D01*
X261765Y309030D01*
X261248Y309098D01*
D02*
G37*
G36*
X185461D02*
Y305736D01*
X188822D01*
X188754Y306253D01*
X188362Y307200D01*
X187738Y308013D01*
X186924Y308637D01*
X185977Y309030D01*
X185461Y309098D01*
D02*
G37*
G36*
X265264Y302090D02*
Y298728D01*
X268625D01*
X268557Y299245D01*
X268165Y300192D01*
X267541Y301005D01*
X266727Y301629D01*
X265780Y302022D01*
X265264Y302090D01*
D02*
G37*
G36*
X189476D02*
Y298728D01*
X192838D01*
X192770Y299245D01*
X192377Y300192D01*
X191753Y301005D01*
X190940Y301629D01*
X189993Y302022D01*
X189476Y302090D01*
D02*
G37*
G36*
X275748Y325958D02*
X274071Y325826D01*
X272435Y325433D01*
X270880Y324790D01*
X269446Y323910D01*
X268166Y322818D01*
X267074Y321538D01*
X266195Y320104D01*
X265551Y318549D01*
X265158Y316914D01*
X265026Y315236D01*
X265158Y313559D01*
X265551Y311923D01*
X266195Y310368D01*
X267074Y308934D01*
X268166Y307655D01*
X269446Y306562D01*
X270880Y305683D01*
X272435Y305039D01*
X274071Y304646D01*
X275748Y304514D01*
X277237Y304631D01*
X277547Y304287D01*
X277587Y304171D01*
X277194Y303223D01*
X276998Y301732D01*
X277194Y300242D01*
X277769Y298853D01*
X278684Y297661D01*
X279877Y296746D01*
X281266Y296171D01*
X282756Y295974D01*
X284246Y296171D01*
X285635Y296746D01*
X286827Y297661D01*
X287742Y298853D01*
X288318Y300242D01*
X288514Y301732D01*
X288318Y303223D01*
X287742Y304611D01*
X286827Y305804D01*
X285635Y306719D01*
X284246Y307294D01*
X283736Y307361D01*
X283533Y307892D01*
X284422Y308934D01*
X285301Y310368D01*
X285945Y311923D01*
X286338Y313559D01*
X286470Y315236D01*
X286338Y316914D01*
X285945Y318549D01*
X285301Y320104D01*
X284422Y321538D01*
X283330Y322818D01*
X282050Y323910D01*
X280616Y324790D01*
X279061Y325433D01*
X277425Y325826D01*
X275748Y325958D01*
D02*
G37*
G36*
X125295Y330356D02*
X123728D01*
Y326091D01*
X128190D01*
Y327461D01*
X128092Y328210D01*
X127802Y328908D01*
X127342Y329508D01*
X126743Y329968D01*
X126044Y330257D01*
X125295Y330356D01*
D02*
G37*
G36*
X240669Y301941D02*
X239708Y301815D01*
X238813Y301444D01*
X238044Y300854D01*
X237454Y300085D01*
X237083Y299189D01*
X236956Y298228D01*
X237083Y297267D01*
X237454Y296372D01*
X238044Y295603D01*
X238813Y295013D01*
X239708Y294642D01*
X240669Y294515D01*
X241630Y294642D01*
X242526Y295013D01*
X243295Y295603D01*
X243885Y296372D01*
X244256Y297267D01*
X244382Y298228D01*
X244256Y299189D01*
X243885Y300085D01*
X243295Y300854D01*
X242526Y301444D01*
X241630Y301815D01*
X240669Y301941D01*
D02*
G37*
G36*
X168898Y308949D02*
X167937Y308823D01*
X167041Y308452D01*
X166272Y307862D01*
X165682Y307093D01*
X165311Y306197D01*
X165185Y305236D01*
X165311Y304275D01*
X165682Y303380D01*
X166272Y302611D01*
X167041Y302021D01*
X167937Y301650D01*
X168898Y301523D01*
X169859Y301650D01*
X170754Y302021D01*
X171523Y302611D01*
X172113Y303380D01*
X172484Y304275D01*
X172610Y305236D01*
X172484Y306197D01*
X172113Y307093D01*
X171523Y307862D01*
X170754Y308452D01*
X169859Y308823D01*
X168898Y308949D01*
D02*
G37*
G36*
X244685D02*
X243724Y308823D01*
X242829Y308452D01*
X242060Y307862D01*
X241470Y307093D01*
X241099Y306197D01*
X240972Y305236D01*
X241099Y304275D01*
X241470Y303380D01*
X242060Y302611D01*
X242829Y302021D01*
X243724Y301650D01*
X244685Y301523D01*
X245646Y301650D01*
X246542Y302021D01*
X247310Y302611D01*
X247901Y303380D01*
X248271Y304275D01*
X248398Y305236D01*
X248271Y306197D01*
X247901Y307093D01*
X247310Y307862D01*
X246542Y308452D01*
X245646Y308823D01*
X244685Y308949D01*
D02*
G37*
G36*
X149961Y325958D02*
X148283Y325826D01*
X146647Y325433D01*
X145093Y324790D01*
X143658Y323910D01*
X142379Y322818D01*
X141286Y321538D01*
X140407Y320104D01*
X139763Y318549D01*
X139371Y316914D01*
X139239Y315236D01*
X139371Y313559D01*
X139763Y311923D01*
X140407Y310368D01*
X141286Y308934D01*
X142176Y307892D01*
X141972Y307361D01*
X141463Y307294D01*
X140074Y306719D01*
X138881Y305804D01*
X137966Y304611D01*
X137391Y303223D01*
X137195Y301732D01*
X137391Y300242D01*
X137966Y298853D01*
X138881Y297661D01*
X140074Y296746D01*
X141463Y296171D01*
X142953Y295974D01*
X144443Y296171D01*
X145832Y296746D01*
X147024Y297661D01*
X147939Y298853D01*
X148514Y300242D01*
X148711Y301732D01*
X148514Y303223D01*
X148122Y304171D01*
X148161Y304287D01*
X148472Y304631D01*
X149961Y304514D01*
X151638Y304646D01*
X153274Y305039D01*
X154828Y305683D01*
X156263Y306562D01*
X157280Y307430D01*
X157651Y307093D01*
X157280Y306197D01*
X157153Y305236D01*
X157280Y304275D01*
X157651Y303380D01*
X158241Y302611D01*
X159010Y302021D01*
X159905Y301650D01*
X160866Y301523D01*
X161827Y301650D01*
X162723Y302021D01*
X163491Y302611D01*
X164082Y303380D01*
X164453Y304275D01*
X164579Y305236D01*
X164453Y306197D01*
X164082Y307093D01*
X163491Y307862D01*
X162723Y308452D01*
X161827Y308823D01*
X160866Y308949D01*
X159905Y308823D01*
X159010Y308452D01*
X158635Y308164D01*
X158289Y308529D01*
X158635Y308934D01*
X159514Y310368D01*
X160158Y311923D01*
X160551Y313559D01*
X160683Y315236D01*
X160551Y316914D01*
X160158Y318549D01*
X159514Y320104D01*
X158635Y321538D01*
X157542Y322818D01*
X156263Y323910D01*
X154828Y324790D01*
X153274Y325433D01*
X151638Y325826D01*
X149961Y325958D01*
D02*
G37*
G36*
X49368Y304144D02*
X44160D01*
X44291Y303150D01*
X44868Y301757D01*
X45786Y300561D01*
X46981Y299644D01*
X48374Y299067D01*
X49368Y298936D01*
Y304144D01*
D02*
G37*
G36*
X55576D02*
X50368D01*
Y298936D01*
X51363Y299067D01*
X52755Y299644D01*
X53951Y300561D01*
X54869Y301757D01*
X55445Y303150D01*
X55576Y304144D01*
D02*
G37*
G36*
X95169Y325091D02*
X90707D01*
Y323721D01*
X90806Y322971D01*
X91095Y322273D01*
X91555Y321673D01*
X92155Y321214D01*
X92853Y320924D01*
X93602Y320826D01*
X95169D01*
Y325091D01*
D02*
G37*
G36*
X100631D02*
X96169D01*
Y320826D01*
X97736D01*
X98485Y320924D01*
X99184Y321214D01*
X99783Y321673D01*
X100243Y322273D01*
X100532Y322971D01*
X100631Y323721D01*
Y325091D01*
D02*
G37*
G36*
X319398Y331709D02*
Y319398D01*
X331709D01*
X331590Y320908D01*
X331119Y322869D01*
X330348Y324732D01*
X329294Y326451D01*
X327984Y327984D01*
X326451Y329294D01*
X324732Y330348D01*
X322869Y331119D01*
X320908Y331590D01*
X319398Y331709D01*
D02*
G37*
G36*
X16248D02*
Y319398D01*
X28559D01*
X28440Y320908D01*
X27970Y322869D01*
X27198Y324732D01*
X26144Y326451D01*
X24835Y327984D01*
X23301Y329294D01*
X21582Y330348D01*
X19719Y331119D01*
X17758Y331590D01*
X16248Y331709D01*
D02*
G37*
G36*
X318398D02*
X316887Y331590D01*
X314927Y331119D01*
X313064Y330348D01*
X311344Y329294D01*
X309811Y327984D01*
X308501Y326451D01*
X307448Y324732D01*
X306676Y322869D01*
X306205Y320908D01*
X306086Y319398D01*
X318398D01*
Y331709D01*
D02*
G37*
G36*
X97736Y330356D02*
X96169D01*
Y326091D01*
X100631D01*
Y327461D01*
X100532Y328210D01*
X100243Y328908D01*
X99783Y329508D01*
X99184Y329968D01*
X98485Y330257D01*
X97736Y330356D01*
D02*
G37*
G36*
X122728D02*
X121161D01*
X120412Y330257D01*
X119714Y329968D01*
X119114Y329508D01*
X118654Y328908D01*
X118365Y328210D01*
X118267Y327461D01*
Y326091D01*
X122728D01*
Y330356D01*
D02*
G37*
G36*
X95169D02*
X93602D01*
X92853Y330257D01*
X92155Y329968D01*
X91555Y329508D01*
X91095Y328908D01*
X90806Y328210D01*
X90707Y327461D01*
Y326091D01*
X95169D01*
Y330356D01*
D02*
G37*
G36*
X122728Y325091D02*
X118267D01*
Y323721D01*
X118365Y322971D01*
X118654Y322273D01*
X119114Y321673D01*
X119714Y321214D01*
X120412Y320924D01*
X121161Y320826D01*
X122728D01*
Y325091D01*
D02*
G37*
G36*
X128190D02*
X123728D01*
Y320826D01*
X125295D01*
X126044Y320924D01*
X126743Y321214D01*
X127342Y321673D01*
X127802Y322273D01*
X128092Y322971D01*
X128190Y323721D01*
Y325091D01*
D02*
G37*
G36*
X103428Y314461D02*
X100106D01*
Y311139D01*
X100612Y311206D01*
X101550Y311594D01*
X102355Y312212D01*
X102973Y313017D01*
X103361Y313954D01*
X103428Y314461D01*
D02*
G37*
G36*
X123113D02*
X119791D01*
Y311139D01*
X120298Y311206D01*
X121235Y311594D01*
X122040Y312212D01*
X122658Y313017D01*
X123047Y313954D01*
X123113Y314461D01*
D02*
G37*
G36*
X118791D02*
X115470D01*
X115536Y313954D01*
X115925Y313017D01*
X116542Y312212D01*
X117348Y311594D01*
X118285Y311206D01*
X118791Y311139D01*
Y314461D01*
D02*
G37*
G36*
X331709Y318398D02*
X319398D01*
Y306086D01*
X320908Y306205D01*
X322869Y306676D01*
X324732Y307448D01*
X326451Y308501D01*
X327984Y309811D01*
X329294Y311344D01*
X330348Y313064D01*
X331119Y314927D01*
X331590Y316887D01*
X331709Y318398D01*
D02*
G37*
G36*
X99106Y314461D02*
X95784D01*
X95851Y313954D01*
X96240Y313017D01*
X96857Y312212D01*
X97663Y311594D01*
X98600Y311206D01*
X99106Y311139D01*
Y314461D01*
D02*
G37*
G36*
X119791Y318782D02*
Y315461D01*
X123113D01*
X123047Y315967D01*
X122658Y316904D01*
X122040Y317710D01*
X121235Y318327D01*
X120298Y318716D01*
X119791Y318782D01*
D02*
G37*
G36*
X15248Y331709D02*
X13738Y331590D01*
X11777Y331119D01*
X9914Y330348D01*
X8195Y329294D01*
X6661Y327984D01*
X5352Y326451D01*
X4298Y324732D01*
X3526Y322869D01*
X3056Y320908D01*
X2937Y319398D01*
X15248D01*
Y331709D01*
D02*
G37*
G36*
X100106Y318782D02*
Y315461D01*
X103428D01*
X103361Y315967D01*
X102973Y316904D01*
X102355Y317710D01*
X101550Y318327D01*
X100612Y318716D01*
X100106Y318782D01*
D02*
G37*
G36*
X118791D02*
X118285Y318716D01*
X117348Y318327D01*
X116542Y317710D01*
X115925Y316904D01*
X115536Y315967D01*
X115470Y315461D01*
X118791D01*
Y318782D01*
D02*
G37*
G36*
X99106D02*
X98600Y318716D01*
X97663Y318327D01*
X96857Y317710D01*
X96240Y316904D01*
X95851Y315967D01*
X95784Y315461D01*
X99106D01*
Y318782D01*
D02*
G37*
G36*
X301665Y245901D02*
X297441D01*
X297051Y245824D01*
X296720Y245603D01*
X296499Y245272D01*
X296421Y244882D01*
Y240657D01*
X301665D01*
Y245901D01*
D02*
G37*
G36*
X306890D02*
X302665D01*
Y240657D01*
X307909D01*
Y244882D01*
X307832Y245272D01*
X307611Y245603D01*
X307280Y245824D01*
X306890Y245901D01*
D02*
G37*
G36*
X135354Y242610D02*
X132390D01*
Y239646D01*
X132803Y239700D01*
X133655Y240053D01*
X134386Y240614D01*
X134947Y241345D01*
X135300Y242197D01*
X135354Y242610D01*
D02*
G37*
G36*
X307909Y239657D02*
X302665D01*
Y234414D01*
X306890D01*
X307280Y234491D01*
X307611Y234712D01*
X307832Y235043D01*
X307909Y235433D01*
Y239657D01*
D02*
G37*
G36*
X131390Y242610D02*
X128425D01*
X128480Y242197D01*
X128832Y241345D01*
X129393Y240614D01*
X130125Y240053D01*
X130976Y239700D01*
X131390Y239646D01*
Y242610D01*
D02*
G37*
G36*
X302165Y259496D02*
X300727Y259307D01*
X299386Y258752D01*
X298234Y257868D01*
X297351Y256717D01*
X296795Y255376D01*
X296606Y253937D01*
X296795Y252498D01*
X297351Y251157D01*
X298234Y250006D01*
X299386Y249122D01*
X300727Y248567D01*
X302165Y248378D01*
X303604Y248567D01*
X304945Y249122D01*
X306096Y250006D01*
X306980Y251157D01*
X307535Y252498D01*
X307725Y253937D01*
X307535Y255376D01*
X306980Y256717D01*
X306096Y257868D01*
X304945Y258752D01*
X303604Y259307D01*
X302165Y259496D01*
D02*
G37*
G36*
X270169Y260327D02*
X267205D01*
X267259Y259913D01*
X267612Y259062D01*
X268173Y258330D01*
X268904Y257769D01*
X269756Y257417D01*
X270169Y257362D01*
Y260327D01*
D02*
G37*
G36*
X111221Y249379D02*
X110362Y249266D01*
X109563Y248935D01*
X108876Y248408D01*
X108349Y247721D01*
X108206Y247376D01*
X101440D01*
X101297Y247721D01*
X100770Y248408D01*
X100083Y248935D01*
X99283Y249266D01*
X98425Y249379D01*
X97567Y249266D01*
X96767Y248935D01*
X96081Y248408D01*
X95554Y247721D01*
X95222Y246921D01*
X95109Y246063D01*
X95222Y245205D01*
X95554Y244405D01*
X96081Y243718D01*
X96767Y243191D01*
X97567Y242860D01*
X98425Y242747D01*
X99283Y242860D01*
X100083Y243191D01*
X100770Y243718D01*
X101297Y244405D01*
X101440Y244750D01*
X108206D01*
X108349Y244405D01*
X108876Y243718D01*
X109563Y243191D01*
X110362Y242860D01*
X111221Y242747D01*
X112079Y242860D01*
X112878Y243191D01*
X113565Y243718D01*
X114092Y244405D01*
X114423Y245205D01*
X114536Y246063D01*
X114423Y246921D01*
X114092Y247721D01*
X113565Y248408D01*
X112878Y248935D01*
X112079Y249266D01*
X111221Y249379D01*
D02*
G37*
G36*
X131390Y246575D02*
X130976Y246520D01*
X130125Y246167D01*
X129393Y245606D01*
X128832Y244875D01*
X128480Y244024D01*
X128425Y243610D01*
X131390D01*
Y246575D01*
D02*
G37*
G36*
X132390D02*
Y243610D01*
X135354D01*
X135300Y244024D01*
X134947Y244875D01*
X134386Y245606D01*
X133655Y246167D01*
X132803Y246520D01*
X132390Y246575D01*
D02*
G37*
G36*
X68372Y310171D02*
X58924D01*
X58616Y310110D01*
X58356Y309936D01*
X58182Y309676D01*
X58121Y309368D01*
Y299920D01*
X58182Y299612D01*
X58356Y299352D01*
X58616Y299178D01*
X58924Y299117D01*
X60868D01*
Y286240D01*
X60791Y286054D01*
X60697Y285335D01*
Y270595D01*
X44760D01*
X44639Y270886D01*
X43881Y271873D01*
X42894Y272631D01*
X41745Y273107D01*
X40512Y273269D01*
X39279Y273107D01*
X38129Y272631D01*
X37142Y271873D01*
X36385Y270886D01*
X35909Y269737D01*
X35871Y269450D01*
X35367D01*
X35322Y269793D01*
X34824Y270994D01*
X34033Y272025D01*
X33002Y272816D01*
X31801Y273314D01*
X31012Y273418D01*
Y267717D01*
Y262015D01*
X31801Y262119D01*
X33002Y262617D01*
X34033Y263408D01*
X34824Y264439D01*
X35322Y265640D01*
X35367Y265983D01*
X35871D01*
X35909Y265696D01*
X36385Y264546D01*
X37142Y263560D01*
X38129Y262802D01*
X39279Y262326D01*
X40512Y262164D01*
X41745Y262326D01*
X42894Y262802D01*
X43881Y263560D01*
X44639Y264546D01*
X44841Y265035D01*
X61905D01*
X62092Y264892D01*
X62906Y264555D01*
X63779Y264440D01*
X64653Y264555D01*
X65467Y264892D01*
X66166Y265428D01*
X66703Y266127D01*
X67040Y266941D01*
X67155Y267815D01*
X67040Y268689D01*
X66703Y269503D01*
X66245Y270099D01*
X66256Y270185D01*
Y282555D01*
X77982D01*
X92818Y267720D01*
X93394Y267278D01*
X94064Y267000D01*
X94784Y266905D01*
X150916D01*
X160449Y257372D01*
Y222129D01*
X159859Y221677D01*
X159102Y220690D01*
X158625Y219540D01*
X158463Y218307D01*
Y216732D01*
X158625Y215499D01*
X159102Y214350D01*
X159859Y213363D01*
X160846Y212606D01*
X161995Y212129D01*
X163228Y211967D01*
X164462Y212129D01*
X165611Y212606D01*
X166598Y213363D01*
X167355Y214350D01*
X167831Y215499D01*
X167976Y216601D01*
X168481D01*
X168625Y215499D01*
X169102Y214350D01*
X169859Y213363D01*
X170846Y212606D01*
X171995Y212129D01*
X173228Y211967D01*
X174462Y212129D01*
X175611Y212606D01*
X176598Y213363D01*
X177355Y214350D01*
X177831Y215499D01*
X177976Y216601D01*
X178481D01*
X178626Y215499D01*
X179102Y214350D01*
X179859Y213363D01*
X180846Y212606D01*
X181995Y212129D01*
X183228Y211967D01*
X184462Y212129D01*
X185611Y212606D01*
X186598Y213363D01*
X187355Y214350D01*
X187831Y215499D01*
X187994Y216732D01*
Y218307D01*
X187831Y219540D01*
X187355Y220690D01*
X186598Y221677D01*
X185611Y222434D01*
X184462Y222910D01*
X183228Y223072D01*
X181995Y222910D01*
X180846Y222434D01*
X179859Y221677D01*
X179102Y220690D01*
X178626Y219540D01*
X178481Y218439D01*
X177976D01*
X177831Y219540D01*
X177355Y220690D01*
X176598Y221677D01*
X175611Y222434D01*
X174462Y222910D01*
X173228Y223072D01*
X171995Y222910D01*
X170846Y222434D01*
X169859Y221677D01*
X169102Y220690D01*
X168625Y219540D01*
X168481Y218439D01*
X167976D01*
X167831Y219540D01*
X167355Y220690D01*
X166598Y221677D01*
X166008Y222129D01*
Y258524D01*
X165913Y259243D01*
X165636Y259913D01*
X165194Y260489D01*
X154033Y271651D01*
X153457Y272092D01*
X152786Y272370D01*
X152067Y272465D01*
X95935D01*
X81099Y287300D01*
X80524Y287742D01*
X79853Y288020D01*
X79134Y288114D01*
X66428D01*
Y299117D01*
X68372D01*
X68680Y299178D01*
X68940Y299352D01*
X69114Y299612D01*
X69175Y299920D01*
Y309368D01*
X69114Y309676D01*
X68940Y309936D01*
X68680Y310110D01*
X68372Y310171D01*
D02*
G37*
G36*
X302650Y218306D02*
X301655Y218176D01*
X300263Y217599D01*
X299067Y216681D01*
X298149Y215485D01*
X297572Y214093D01*
X297442Y213098D01*
X302650D01*
Y218306D01*
D02*
G37*
G36*
X266328Y212413D02*
X262311D01*
Y208397D01*
X262997Y208487D01*
X264102Y208945D01*
X265051Y209673D01*
X265780Y210622D01*
X266237Y211727D01*
X266328Y212413D01*
D02*
G37*
G36*
X308858Y212098D02*
X303650D01*
Y206891D01*
X304644Y207021D01*
X306036Y207598D01*
X307232Y208516D01*
X308150Y209712D01*
X308727Y211104D01*
X308858Y212098D01*
D02*
G37*
G36*
X261311Y212413D02*
X257294D01*
X257385Y211727D01*
X257842Y210622D01*
X258571Y209673D01*
X259520Y208945D01*
X260625Y208487D01*
X261311Y208397D01*
Y212413D01*
D02*
G37*
G36*
X62402Y229398D02*
X61543Y229286D01*
X60744Y228954D01*
X60057Y228427D01*
X59530Y227741D01*
X59199Y226941D01*
X59086Y226083D01*
X59199Y225224D01*
X59530Y224425D01*
X60057Y223738D01*
X60744Y223211D01*
X61543Y222880D01*
X61693Y222860D01*
X66932Y217621D01*
X67508Y217179D01*
X68178Y216902D01*
X68898Y216807D01*
X137888D01*
X138007Y216715D01*
X138807Y216384D01*
X139665Y216271D01*
X140524Y216384D01*
X141323Y216715D01*
X142010Y217242D01*
X142537Y217929D01*
X142868Y218728D01*
X142981Y219587D01*
X142868Y220445D01*
X142537Y221245D01*
X142010Y221931D01*
X141323Y222458D01*
X140524Y222789D01*
X139665Y222902D01*
X138807Y222789D01*
X138007Y222458D01*
X137888Y222366D01*
X70049D01*
X65624Y226791D01*
X65604Y226941D01*
X65273Y227741D01*
X64746Y228427D01*
X64060Y228954D01*
X63260Y229286D01*
X62402Y229398D01*
D02*
G37*
G36*
X301665Y239657D02*
X296421D01*
Y235433D01*
X296499Y235043D01*
X296720Y234712D01*
X297051Y234491D01*
X297441Y234414D01*
X301665D01*
Y239657D01*
D02*
G37*
G36*
X262311Y217430D02*
Y213413D01*
X266328D01*
X266237Y214099D01*
X265780Y215205D01*
X265051Y216154D01*
X264102Y216882D01*
X262997Y217340D01*
X262311Y217430D01*
D02*
G37*
G36*
X303650Y218306D02*
Y213098D01*
X308858D01*
X308727Y214093D01*
X308150Y215485D01*
X307232Y216681D01*
X306036Y217599D01*
X304644Y218176D01*
X303650Y218306D01*
D02*
G37*
G36*
X261311Y217430D02*
X260625Y217340D01*
X259520Y216882D01*
X258571Y216154D01*
X257842Y215205D01*
X257385Y214099D01*
X257294Y213413D01*
X261311D01*
Y217430D01*
D02*
G37*
G36*
X301665Y280996D02*
X296457D01*
X296588Y280002D01*
X297165Y278609D01*
X298083Y277413D01*
X299278Y276496D01*
X300671Y275919D01*
X301665Y275788D01*
Y280996D01*
D02*
G37*
G36*
X307873D02*
X302665D01*
Y275788D01*
X303660Y275919D01*
X305052Y276496D01*
X306248Y277413D01*
X307166Y278609D01*
X307742Y280002D01*
X307873Y280996D01*
D02*
G37*
G36*
X30012Y273418D02*
X29223Y273314D01*
X28022Y272816D01*
X26991Y272025D01*
X26199Y270994D01*
X25702Y269793D01*
X25657Y269450D01*
X25152D01*
X25115Y269737D01*
X24639Y270886D01*
X23881Y271873D01*
X22894Y272631D01*
X21745Y273107D01*
X20512Y273269D01*
X19278Y273107D01*
X18129Y272631D01*
X17142Y271873D01*
X16385Y270886D01*
X15909Y269737D01*
X15747Y268504D01*
Y266929D01*
X15909Y265696D01*
X16385Y264546D01*
X17142Y263560D01*
X18129Y262802D01*
X19278Y262326D01*
X20512Y262164D01*
X21745Y262326D01*
X22894Y262802D01*
X23881Y263560D01*
X24639Y264546D01*
X25115Y265696D01*
X25152Y265983D01*
X25657D01*
X25702Y265640D01*
X26199Y264439D01*
X26991Y263408D01*
X28022Y262617D01*
X29223Y262119D01*
X30012Y262015D01*
Y267717D01*
Y273418D01*
D02*
G37*
G36*
X71153Y271339D02*
X70724Y271282D01*
X69859Y270924D01*
X69115Y270353D01*
X68545Y269610D01*
X68186Y268744D01*
X68130Y268315D01*
X71153D01*
Y271339D01*
D02*
G37*
G36*
X72154Y271339D02*
Y268315D01*
X75178D01*
X75121Y268744D01*
X74762Y269610D01*
X74192Y270353D01*
X73448Y270924D01*
X72583Y271282D01*
X72154Y271339D01*
D02*
G37*
G36*
X192838Y297728D02*
X189476D01*
Y294367D01*
X189993Y294435D01*
X190940Y294827D01*
X191753Y295451D01*
X192377Y296265D01*
X192770Y297212D01*
X192838Y297728D01*
D02*
G37*
G36*
X268625D02*
X265264D01*
Y294367D01*
X265780Y294435D01*
X266727Y294827D01*
X267541Y295451D01*
X268165Y296265D01*
X268557Y297212D01*
X268625Y297728D01*
D02*
G37*
G36*
X164882Y301941D02*
X163921Y301815D01*
X163025Y301444D01*
X162257Y300854D01*
X161667Y300085D01*
X161295Y299189D01*
X161169Y298228D01*
X161295Y297267D01*
X161667Y296372D01*
X162257Y295603D01*
X163025Y295013D01*
X163921Y294642D01*
X164882Y294515D01*
X165843Y294642D01*
X166387Y294867D01*
X172812Y288442D01*
X173238Y288157D01*
X173740Y288057D01*
X223425D01*
X223927Y288157D01*
X224353Y288442D01*
X229112Y293200D01*
X229457Y293057D01*
X230315Y292944D01*
X231173Y293057D01*
X231973Y293388D01*
X232660Y293915D01*
X233187Y294602D01*
X233518Y295402D01*
X233631Y296260D01*
X233518Y297118D01*
X233187Y297918D01*
X232660Y298604D01*
X231973Y299131D01*
X231173Y299463D01*
X230315Y299576D01*
X229457Y299463D01*
X228657Y299131D01*
X227970Y298604D01*
X227443Y297918D01*
X227112Y297118D01*
X226999Y296260D01*
X227112Y295402D01*
X227255Y295056D01*
X222882Y290683D01*
X174284D01*
X168243Y296724D01*
X168468Y297267D01*
X168595Y298228D01*
X168468Y299189D01*
X168097Y300085D01*
X167507Y300854D01*
X166738Y301444D01*
X165843Y301815D01*
X164882Y301941D01*
D02*
G37*
G36*
X301665Y287204D02*
X300671Y287073D01*
X299278Y286496D01*
X298083Y285579D01*
X297165Y284383D01*
X296588Y282990D01*
X296457Y281996D01*
X301665D01*
Y287204D01*
D02*
G37*
G36*
X302665D02*
Y281996D01*
X307873D01*
X307742Y282990D01*
X307166Y284383D01*
X306248Y285579D01*
X305052Y286496D01*
X303660Y287073D01*
X302665Y287204D01*
D02*
G37*
G36*
X270169Y264291D02*
X269756Y264237D01*
X268904Y263884D01*
X268173Y263323D01*
X267612Y262592D01*
X267259Y261740D01*
X267205Y261327D01*
X270169D01*
Y264291D01*
D02*
G37*
G36*
X271169D02*
Y261327D01*
X274134D01*
X274079Y261740D01*
X273727Y262592D01*
X273165Y263323D01*
X272434Y263884D01*
X271583Y264237D01*
X271169Y264291D01*
D02*
G37*
G36*
X150118Y262295D02*
X147153D01*
Y259331D01*
X147567Y259385D01*
X148419Y259738D01*
X149150Y260299D01*
X149711Y261030D01*
X150063Y261882D01*
X150118Y262295D01*
D02*
G37*
G36*
X274134Y260327D02*
X271169D01*
Y257362D01*
X271583Y257417D01*
X272434Y257769D01*
X273165Y258330D01*
X273727Y259062D01*
X274079Y259913D01*
X274134Y260327D01*
D02*
G37*
G36*
X146153Y262295D02*
X143189D01*
X143244Y261882D01*
X143596Y261030D01*
X144157Y260299D01*
X144888Y259738D01*
X145740Y259385D01*
X146153Y259331D01*
Y262295D01*
D02*
G37*
G36*
X75178Y267315D02*
X72154D01*
Y264291D01*
X72583Y264348D01*
X73448Y264706D01*
X74192Y265277D01*
X74762Y266020D01*
X75121Y266886D01*
X75178Y267315D01*
D02*
G37*
G36*
X71153D02*
X68130D01*
X68186Y266886D01*
X68545Y266020D01*
X69115Y265277D01*
X69859Y264706D01*
X70724Y264348D01*
X71153Y264291D01*
Y267315D01*
D02*
G37*
G36*
X147153Y266260D02*
Y263295D01*
X150118D01*
X150063Y263709D01*
X149711Y264560D01*
X149150Y265292D01*
X148419Y265852D01*
X147567Y266205D01*
X147153Y266260D01*
D02*
G37*
G36*
X302165Y273276D02*
X300727Y273087D01*
X299386Y272531D01*
X298234Y271648D01*
X297351Y270496D01*
X296795Y269155D01*
X296606Y267717D01*
X296795Y266278D01*
X297351Y264937D01*
X298234Y263786D01*
X299386Y262902D01*
X300727Y262347D01*
X302165Y262157D01*
X303604Y262347D01*
X304945Y262902D01*
X306096Y263786D01*
X306980Y264937D01*
X307535Y266278D01*
X307725Y267717D01*
X307535Y269155D01*
X306980Y270496D01*
X306096Y271648D01*
X304945Y272531D01*
X303604Y273087D01*
X302165Y273276D01*
D02*
G37*
G36*
X146153Y266260D02*
X145740Y266205D01*
X144888Y265852D01*
X144157Y265292D01*
X143596Y264560D01*
X143244Y263709D01*
X143189Y263295D01*
X146153D01*
Y266260D01*
D02*
G37*
%LPD*%
G36*
X129593Y186464D02*
Y125544D01*
X111040Y106991D01*
X110756Y106565D01*
X110656Y106063D01*
Y63188D01*
X110156Y63089D01*
X110041Y63367D01*
X109514Y64053D01*
X108827Y64580D01*
X108028Y64912D01*
X107169Y65024D01*
X106311Y64912D01*
X105511Y64580D01*
X104825Y64053D01*
X104298Y63367D01*
X104155Y63021D01*
X100107D01*
X98313Y64815D01*
Y107283D01*
X124944Y133914D01*
X125228Y134340D01*
X125328Y134843D01*
Y184978D01*
X125674Y185121D01*
X126360Y185647D01*
X126887Y186334D01*
X127218Y187134D01*
X127331Y187992D01*
X127322Y188066D01*
X127770Y188287D01*
X129593Y186464D01*
D02*
G37*
D20*
X164882Y298228D02*
X173740Y289370D01*
X248701Y288917D02*
Y298228D01*
X293307Y38386D02*
Y48228D01*
X283307Y38386D02*
Y46417D01*
X177165Y90551D02*
X215551Y52165D01*
X181102Y90551D02*
X216535Y55118D01*
X181102Y90551D02*
Y97441D01*
X177165Y90551D02*
Y103347D01*
X119095Y59055D02*
X125000Y53150D01*
X119095Y59055D02*
Y105315D01*
X135827Y122047D01*
Y187008D01*
X124016Y198819D02*
X135827Y187008D01*
X118110Y193898D02*
X124016D01*
X130905Y187008D01*
Y125000D02*
Y187008D01*
X111969Y106063D02*
X130905Y125000D01*
X111969Y52441D02*
Y106063D01*
X124016Y134843D02*
Y187992D01*
X118110Y136811D02*
Y183071D01*
X85630Y104331D02*
X118110Y136811D01*
X85630Y90551D02*
Y104331D01*
X173740Y289370D02*
X223425D01*
X230315Y296260D01*
X136811Y43307D02*
X141732D01*
X199803Y126969D02*
X323661D01*
X324803Y128110D01*
X98425Y246063D02*
X111221D01*
X97000Y107827D02*
X124016Y134843D01*
X97000Y47409D02*
X101969Y42441D01*
X188779Y266929D02*
X226713D01*
X248701Y288917D01*
X121933Y28429D02*
X136811Y43307D01*
X75787Y35878D02*
Y52165D01*
Y35878D02*
X83236Y28429D01*
X121933D01*
X99563Y61709D02*
X107169D01*
X97205Y59350D02*
X99563Y61709D01*
X97000Y64272D02*
X99563Y61709D01*
X97000Y64272D02*
Y107827D01*
Y59350D02*
X97205D01*
X97000Y47409D02*
Y59350D01*
X286417Y55118D02*
X293307Y48228D01*
X277559Y52165D02*
X283307Y46417D01*
X216535Y55118D02*
X286417D01*
X215551Y52165D02*
X277559D01*
X178583Y73228D02*
X227205Y24606D01*
X163976Y73228D02*
X178583D01*
X157441Y79764D02*
X163976Y73228D01*
X276575Y16732D02*
X284449Y8858D01*
X235079Y16732D02*
X276575D01*
X227205Y24606D02*
X235079Y16732D01*
X129173Y108110D02*
X324803D01*
X126673Y105610D02*
X129173Y108110D01*
D21*
X126673Y105610D02*
X131595D01*
X157441Y79764D01*
D22*
X63476Y285335D02*
X63648Y285506D01*
Y304644D01*
X63476Y285335D02*
X79134D01*
X63476Y270185D02*
Y285335D01*
X94784Y269685D02*
X152067D01*
X79134Y285335D02*
X94784Y269685D01*
X40512Y267717D02*
X40610Y267815D01*
X63779D01*
X68898Y219587D02*
X139665D01*
X62402Y226083D02*
X68898Y219587D01*
X152067Y269685D02*
X163228Y258524D01*
Y217520D02*
Y258524D01*
D26*
X313307Y38386D02*
D03*
X303307D02*
D03*
X293307D02*
D03*
X283307D02*
D03*
X237205Y8858D02*
D03*
X247205D02*
D03*
X257205D02*
D03*
X237205Y24606D02*
D03*
X247205D02*
D03*
X257205D02*
D03*
X261811Y202913D02*
D03*
Y212913D02*
D03*
X91969Y42441D02*
D03*
Y52441D02*
D03*
X101969Y42441D02*
D03*
X111969D02*
D03*
X101969Y52441D02*
D03*
X324803Y75787D02*
D03*
Y128110D02*
D03*
Y118110D02*
D03*
Y108110D02*
D03*
X294449Y8858D02*
D03*
X284449D02*
D03*
D27*
X273307Y38386D02*
D03*
X227205Y8858D02*
D03*
Y24606D02*
D03*
X111969Y52441D02*
D03*
X274449Y8858D02*
D03*
D28*
X159354Y20516D02*
D03*
X178567D02*
D03*
X57323Y125000D02*
D03*
X76535D02*
D03*
D29*
X261811Y192913D02*
D03*
X324803Y85787D02*
D03*
Y138110D02*
D03*
D30*
X15748Y318898D02*
D03*
Y15748D02*
D03*
X318898D02*
D03*
Y318898D02*
D03*
D31*
X163228Y217520D02*
D03*
X173228D02*
D03*
X183228D02*
D03*
X40512Y267717D02*
D03*
X30512D02*
D03*
X20512D02*
D03*
D32*
X63779Y267815D02*
D03*
X71653D02*
D03*
D33*
X119291Y314961D02*
D03*
X99606D02*
D03*
D34*
X123228Y325590D02*
D03*
X95669D02*
D03*
D35*
X302165Y281496D02*
D03*
Y267717D02*
D03*
Y253937D02*
D03*
X49868Y304644D02*
D03*
X303150Y212598D02*
D03*
Y198819D02*
D03*
Y185039D02*
D03*
D36*
X302165Y240158D02*
D03*
X303150Y171260D02*
D03*
D37*
X282756Y301732D02*
D03*
X218740D02*
D03*
X142953D02*
D03*
X206968D02*
D03*
D38*
X225748Y315236D02*
D03*
X275748D02*
D03*
X199961D02*
D03*
X149961D02*
D03*
D39*
X264764Y298228D02*
D03*
X260748Y305236D02*
D03*
X256732Y298228D02*
D03*
X252716Y305236D02*
D03*
X248701Y298228D02*
D03*
X244685Y305236D02*
D03*
X240669Y298228D02*
D03*
X236653Y305236D02*
D03*
X160866D02*
D03*
X164882Y298228D02*
D03*
X168898Y305236D02*
D03*
X172913Y298228D02*
D03*
X176929Y305236D02*
D03*
X180945Y298228D02*
D03*
X184961Y305236D02*
D03*
X188976Y298228D02*
D03*
D40*
X63648Y304644D02*
D03*
D41*
X177165Y103347D02*
D03*
X181102Y97441D02*
D03*
X270669Y260827D02*
D03*
X146653Y262795D02*
D03*
X99410Y147638D02*
D03*
X159449Y162402D02*
D03*
X183071D02*
D03*
X125000Y53150D02*
D03*
X85630Y90551D02*
D03*
X124016Y198819D02*
D03*
X118110Y183071D02*
D03*
X124016Y187992D02*
D03*
X118110Y193898D02*
D03*
X230315Y296260D02*
D03*
X75787Y52165D02*
D03*
X141732Y43307D02*
D03*
X199803Y126969D02*
D03*
X111221Y246063D02*
D03*
X98425D02*
D03*
X131890Y243110D02*
D03*
X188779Y266929D02*
D03*
X107169Y61709D02*
D03*
X139665Y219587D02*
D03*
X62402Y226083D02*
D03*
X126673Y105610D02*
D03*
X157441Y79764D02*
D03*
M02*
